<svg width="56" height="53" viewBox="0 0 56 53" fill="none" xmlns="http://www.w3.org/2000/svg">
<ellipse opacity="0.1" cx="28" cy="26.5" rx="28" ry="26.5" fill="url(#paint0_linear_18_4)"/>
<path fill-rule="evenodd" clip-rule="evenodd" d="M35.6719 15.6369C37.2858 15.4258 38.6158 16.7558 38.4047 18.3696C38.0962 20.7286 37.2491 24.7361 34.8536 27.319C34.0914 28.1408 33.1707 28.9001 32.2239 29.5747L32.5006 31.5112C32.5785 32.0565 32.3951 32.6066 32.0056 32.9961L28.8236 36.1781C27.8039 37.1978 26.0577 36.6157 25.8538 35.1881L25.4295 32.2183L25.4308 32.2181C25.1598 32.087 24.9086 31.9096 24.6897 31.6907L22.3509 29.3518C22.132 29.1329 21.9546 28.8817 21.8234 28.6107L21.8232 28.6121L18.8534 28.1878C17.4258 27.9839 16.8437 26.2376 17.8634 25.2179L21.0454 22.036C21.4349 21.6465 21.9851 21.4631 22.5303 21.541L24.4668 21.8176C25.1415 20.8708 25.9008 19.9502 26.7226 19.188C29.3054 16.7925 33.3129 15.9454 35.6719 15.6369ZM20.3383 29.4606C20.6312 29.7535 20.6312 30.2283 20.3383 30.5212L18.9241 31.9354C18.6312 32.2283 18.1564 32.2283 17.8635 31.9354C17.5706 31.6425 17.5706 31.1677 17.8635 30.8748L19.2777 29.4606C19.5706 29.1677 20.0454 29.1677 20.3383 29.4606ZM22.4597 31.5819C22.7526 31.8748 22.7526 32.3497 22.4597 32.6425L19.6312 35.471C19.3383 35.7639 18.8635 35.7639 18.5706 35.471C18.2777 35.1781 18.2777 34.7032 18.5706 34.4103L21.399 31.5819C21.6919 31.289 22.1668 31.289 22.4597 31.5819ZM24.581 33.7032C24.8739 33.9961 24.8739 34.471 24.581 34.7639L23.1668 36.1781C22.8739 36.471 22.399 36.471 22.1061 36.1781C21.8132 35.8852 21.8132 35.4103 22.1061 35.1174L23.5203 33.7032C23.8132 33.4103 24.2881 33.4103 24.581 33.7032ZM29.7072 24.3339C28.9261 23.5529 28.9261 22.2866 29.7072 21.5055C30.4882 20.7245 31.7546 20.7245 32.5356 21.5055C33.3167 22.2866 33.3167 23.5529 32.5356 24.3339C31.7546 25.115 30.4882 25.115 29.7072 24.3339Z" fill="url(#paint1_linear_18_4)"/>
<defs>
<linearGradient id="paint0_linear_18_4" x1="28" y1="0" x2="28" y2="53" gradientUnits="userSpaceOnUse">
<stop stop-color="#B71405"/>
<stop offset="1" stop-color="#F32020"/>
</linearGradient>
<linearGradient id="paint1_linear_18_4" x1="27.8879" y1="15.6147" x2="27.8879" y2="36.6926" gradientUnits="userSpaceOnUse">
<stop stop-color="#B71405"/>
<stop offset="1" stop-color="#F32020"/>
</linearGradient>
</defs>
</svg>
