<svg width="126" height="32" viewBox="0 0 126 32" fill="none" xmlns="http://www.w3.org/2000/svg">
<path d="M0 6.69482V30.211H4.06648L4.19257 28.0359C5.35892 29.8012 7.25031 30.6839 9.33083 30.6839C14.2169 30.6839 17.2431 26.3022 17.2431 21.7944C17.2431 17.2866 14.3115 13.094 9.58302 13.094C7.50249 13.094 5.67415 14.0082 4.41323 15.6789V6.69482H0ZM8.54275 17.0659C11.2222 17.0659 12.7353 19.4301 12.7353 21.8889C12.7353 24.3793 11.1592 26.712 8.54275 26.712C5.89482 26.712 4.35018 24.3162 4.35018 21.8889C4.35018 19.3986 5.92634 17.0659 8.54275 17.0659Z" fill="white"/>
<path d="M20.4481 13.5669V30.211H24.8614V22.0466C24.8614 19.5562 25.9647 17.7594 28.6441 17.7594C29.1485 17.7594 29.6213 17.7594 30.0942 17.9801L30.567 13.6299C30.3464 13.5353 30.0627 13.4723 29.779 13.4092C29.4953 13.3777 29.18 13.3462 28.8963 13.3462C26.9419 13.3462 25.4918 14.3234 24.6722 16.0887L24.5146 13.5669H20.4481Z" fill="white"/>
<path d="M32.2311 22.015C32.2311 26.9011 35.7302 30.6839 40.5847 30.6839C44.1153 30.6839 47.2991 28.7295 48.2133 25.2304L44.0207 24.4108C43.4533 25.8609 42.1609 26.712 40.6162 26.712C37.9998 26.712 36.7389 24.2532 36.7389 21.952C36.7389 19.6193 37.9998 17.0659 40.6162 17.0659C42.1609 17.0659 43.2642 17.9801 43.8631 19.3671L48.0557 18.5475C47.173 15.08 44.1784 13.094 40.7108 13.094C35.6671 13.094 32.2311 17.2235 32.2311 22.015Z" fill="white"/>
<path d="M63.2269 30.6839C65.1183 30.6839 67.1358 29.9273 68.1445 28.2566L68.2706 30.211H72.211V20.1237C72.211 15.7735 69.1532 13.094 64.9922 13.094C61.9345 13.094 58.6245 14.7332 57.8995 17.917L61.8399 18.7051C62.3127 17.3811 63.5737 16.7192 64.9292 16.7192C66.8521 16.7192 67.9239 18.0431 67.9239 19.903V20.8802C66.6314 20.4074 65.5281 20.1552 64.1411 20.1552C60.8312 20.1552 57.3006 21.7629 57.3006 25.4826C57.3006 28.7925 60.2007 30.6839 63.2269 30.6839ZM61.6508 25.2619C61.6508 23.5912 63.5106 23.1183 64.8661 23.1183C65.402 23.1183 65.9064 23.1814 66.4423 23.276C66.9782 23.4021 67.451 23.5597 67.9239 23.7488V23.9064C67.9239 25.9554 66.2216 27.2794 64.2987 27.2794C63.0693 27.2794 61.6508 26.6805 61.6508 25.2619Z" fill="white"/>
<path d="M76.0433 13.5669V22.7716C76.0433 27.4685 78.8803 30.6839 83.5458 30.6839C88.3688 30.6839 91.1743 27.3109 91.1743 22.7716V13.5669H86.7611V22.8662C86.7611 24.8521 85.8469 26.712 83.6088 26.712C81.3707 26.712 80.4565 24.8521 80.4565 22.8662V13.5669H76.0433Z" fill="white"/>
<path d="M108.189 21.8889C108.189 26.9011 111.878 30.6839 116.827 30.6839C121.933 30.6839 125.59 26.8381 125.59 21.8574C125.59 16.8137 121.902 13.094 116.953 13.094C111.909 13.094 108.189 16.9398 108.189 21.8889ZM116.89 17.0659C119.569 17.0659 121.082 19.4301 121.082 21.8889C121.082 24.3793 119.506 26.712 116.89 26.712C114.242 26.712 112.697 24.3162 112.697 21.8889C112.697 19.3986 114.273 17.0659 116.89 17.0659Z" fill="white"/>
<path d="M102.463 3.76192L97.6697 3.70501C95.917 3.68258 94.3679 5.19539 94.3487 6.94805L94.2783 12.8775C94.261 14.333 95.2039 15.5668 96.5121 16.0122L96.397 25.7787C96.3806 27.1603 96.7704 28.5041 97.523 29.6634C98.0137 30.4179 98.8429 30.8752 99.7442 30.8859C100.465 30.8953 101.148 30.6166 101.653 30.1237C101.778 30.0015 101.892 29.8647 101.995 29.7156C102.774 28.5761 103.196 27.2419 103.212 25.8588L103.328 16.0947C103.817 15.943 104.271 15.6913 104.649 15.3231C105.275 14.7112 105.626 13.8903 105.637 13.0132L105.707 7.08373C105.729 5.27322 104.274 3.78341 102.463 3.76192ZM100.94 25.831C100.929 26.7644 100.645 27.664 100.119 28.4338C100.014 28.59 99.8547 28.6138 99.7712 28.6144C99.6877 28.6134 99.5337 28.5875 99.4288 28.4264C98.9199 27.6435 98.6575 26.7374 98.6686 25.8057L98.7825 16.2151L101.055 16.2412L100.94 25.831ZM100.758 8.76818C100.309 9.2063 99.5896 9.19776 99.1515 8.74911C98.7133 8.30046 98.7219 7.58079 99.1705 7.14267C99.6192 6.70455 100.339 6.71309 100.777 7.16174C101.215 7.61039 101.207 8.33006 100.758 8.76818Z" fill="white"/>
</svg>
