<svg width="56" height="53" viewBox="0 0 56 53" fill="none" xmlns="http://www.w3.org/2000/svg">
<ellipse opacity="0.1" cx="28" cy="26.5" rx="28" ry="26.5" fill="url(#paint0_linear_16_2)"/>
<path d="M36.2107 35.0473C31.0674 34.0743 25.9444 34.075 20.7971 35.06C20.7777 35.129 20.7568 35.2107 20.7326 35.2916C20.6075 35.7087 20.2662 35.9887 19.8273 35.9927C18.6801 36.0014 17.5329 36.0038 16.3856 35.9919C15.8781 35.9863 15.5651 35.658 15.4288 35.0378C14.9092 34.9371 14.6857 34.5691 14.5639 34.0933C14.1339 32.4128 13.9056 30.7093 14.0371 28.9797C14.1226 27.8583 14.2775 26.7409 14.4316 25.6259C14.5349 24.8804 14.9657 24.3403 15.6434 23.9898C15.7942 23.9121 15.9395 23.8225 16.0887 23.7408C16.2944 23.6282 16.3219 23.491 16.1702 23.3093C15.9088 22.9969 15.8572 22.6495 16.0419 22.2855C16.2315 21.9128 16.5558 21.7454 16.9746 21.7454C17.2465 21.7454 17.52 21.728 17.7894 21.751C18.0113 21.77 18.1049 21.6772 18.1928 21.4925C18.5776 20.6851 19.0109 19.9071 19.6176 19.2323C20.3994 18.3639 21.4215 17.9245 22.5293 17.6541C24.9415 17.0648 27.395 16.9229 29.8694 17.0355C31.399 17.1053 32.9101 17.2901 34.4067 17.6279C36.2962 18.0546 37.633 19.1196 38.4729 20.8184C38.539 20.9516 38.6367 21.0761 38.673 21.2157C38.7964 21.6899 39.111 21.8152 39.5677 21.7502C39.7549 21.7232 39.9501 21.7351 40.1405 21.7502C40.5197 21.7811 40.8061 21.9627 40.9707 22.3053C41.1312 22.6384 41.0901 22.958 40.8795 23.2594C40.6657 23.5647 40.6762 23.6083 41.015 23.7947C41.1466 23.8669 41.2748 23.9462 41.4071 24.0168C42.0493 24.3601 42.4342 24.8851 42.5721 25.5902C43.1401 28.4816 43.2006 31.3628 42.3987 34.2289C42.2922 34.6088 42.0889 34.8848 41.6944 35.0116C41.6306 35.0323 41.5645 35.1195 41.5443 35.1885C41.3846 35.7436 41.0626 35.9958 40.4761 35.9966C39.4499 35.999 38.4229 35.9974 37.3966 35.9966C36.6834 35.9966 36.3704 35.7508 36.2107 35.0481V35.0473ZM28.4664 23.0905C28.4664 23.1079 28.4664 23.1246 28.4664 23.142C29.0295 23.142 29.5934 23.1285 30.1566 23.1444C32.3187 23.2055 34.4809 23.2776 36.6431 23.3411C37.199 23.3577 37.4144 23.0294 37.1764 22.5337C37.0134 22.1943 36.8311 21.8644 36.6633 21.5274C36.1082 20.4123 35.2046 19.7612 33.9767 19.4797C32.6189 19.1688 31.2473 19.0015 29.8589 18.9341C27.6281 18.8254 25.4143 18.9452 23.2328 19.4385C22.3332 19.6415 21.4441 19.9111 20.8883 20.7129C20.5333 21.2252 20.2501 21.7843 19.9282 22.3188C19.5087 23.0159 19.7563 23.3863 20.593 23.3506C23.2166 23.2396 25.8419 23.1745 28.4672 23.0913L28.4664 23.0905ZM28.5325 32.1392C30.2921 32.1392 32.0525 32.1614 33.8121 32.121C34.1752 32.1122 34.5745 31.9283 34.8843 31.7205C35.4362 31.3509 35.3966 30.7577 34.8182 30.423C34.5019 30.2406 34.1485 30.0979 33.7935 30.0059C30.3792 29.1216 26.9504 29.1557 23.5232 29.9202C23.0246 30.0313 22.5333 30.2565 22.0952 30.5198C21.6136 30.8093 21.6168 31.2557 22.0274 31.6348C22.3614 31.9433 22.7656 32.1313 23.2223 32.1344C24.9924 32.1463 26.7624 32.1392 28.5325 32.1392ZM18.2089 27.4602C19.027 27.3912 19.7491 27.3373 20.4687 27.2611C20.5728 27.25 20.7229 27.1446 20.7471 27.0549C20.7713 26.9653 20.6858 26.8234 20.6107 26.7369C20.5357 26.6505 20.4147 26.6013 20.3106 26.5418C19.4651 26.0597 18.5292 25.8162 17.5893 25.6108C17.1956 25.5243 16.7729 25.5426 16.3654 25.5584C16.2388 25.5632 16.0387 25.6956 16.0072 25.8067C15.8281 26.4348 15.908 27.2548 16.8608 27.3817C17.3368 27.4451 17.8217 27.4388 18.2097 27.4594L18.2089 27.4602ZM38.7972 27.4594C39.1812 27.438 39.6871 27.4459 40.1816 27.3737C40.7706 27.2881 41.0247 26.9645 41.0586 26.3785C41.0667 26.2405 41.0635 26.1017 41.0554 25.9637C41.0401 25.7028 40.9223 25.5553 40.631 25.5267C39.9735 25.4617 39.3523 25.6219 38.7302 25.7829C37.9122 25.9954 37.0997 26.2294 36.4051 26.7282C36.3075 26.798 36.2445 26.9725 36.2478 27.0962C36.2494 27.158 36.4333 27.2564 36.5422 27.2675C37.2522 27.3389 37.9646 27.3912 38.7964 27.4602L38.7972 27.4594Z" fill="url(#paint1_linear_16_2)"/>
<defs>
<linearGradient id="paint0_linear_16_2" x1="28" y1="0" x2="28" y2="53" gradientUnits="userSpaceOnUse">
<stop stop-color="#B71405"/>
<stop offset="1" stop-color="#B71405"/>
</linearGradient>
<linearGradient id="paint1_linear_16_2" x1="28.5" y1="17" x2="28.5" y2="36" gradientUnits="userSpaceOnUse">
<stop stop-color="#B71405"/>
<stop offset="1" stop-color="#F32020"/>
</linearGradient>
</defs>
</svg>
