<svg width="120" height="20" viewBox="0 0 120 20" fill="none" xmlns="http://www.w3.org/2000/svg">
<path d="M9.10331 3.48338C9.47015 2.74021 10.5299 2.74021 10.8967 3.48338L12.3426 6.4125C12.4881 6.70735 12.7693 6.91181 13.0947 6.95937L16.3296 7.4322C17.1495 7.55204 17.4763 8.55988 16.8827 9.13804L14.5435 11.4164C14.3076 11.6462 14.1999 11.9773 14.2556 12.3018L14.8074 15.5194C14.9476 16.3363 14.09 16.9593 13.3564 16.5735L10.4655 15.0532C10.1741 14.9 9.82595 14.9 9.53457 15.0532L6.64365 16.5735C5.91002 16.9593 5.05247 16.3363 5.19259 15.5194L5.74444 12.3018C5.8001 11.9773 5.69244 11.6462 5.45656 11.4164L3.11737 9.13804C2.52377 8.55988 2.85056 7.55204 3.67047 7.4322L6.90539 6.95937C7.23074 6.91181 7.51193 6.70735 7.65747 6.4125L9.10331 3.48338Z" fill="#FFB800"/>
<path d="M34.1033 3.48338C34.4701 2.74021 35.5299 2.74021 35.8967 3.48338L37.3426 6.4125C37.4881 6.70735 37.7693 6.91181 38.0947 6.95937L41.3296 7.4322C42.1495 7.55204 42.4763 8.55988 41.8827 9.13804L39.5435 11.4164C39.3076 11.6462 39.1999 11.9773 39.2556 12.3018L39.8074 15.5194C39.9476 16.3363 39.09 16.9593 38.3564 16.5735L35.4655 15.0532C35.1741 14.9 34.826 14.9 34.5346 15.0532L31.6437 16.5735C30.91 16.9593 30.0525 16.3363 30.1926 15.5194L30.7444 12.3018C30.8001 11.9773 30.6924 11.6462 30.4566 11.4164L28.1174 9.13804C27.5238 8.55988 27.8506 7.55204 28.6705 7.4322L31.9054 6.95937C32.2307 6.91181 32.5119 6.70735 32.6575 6.4125L34.1033 3.48338Z" stroke="#FFB800" stroke-linecap="round" stroke-linejoin="round"/>
<path d="M34.4366 3.81663C34.8035 3.07346 35.8632 3.07346 36.23 3.81663L37.6759 6.74576C37.8214 7.0406 38.1026 7.24506 38.428 7.29262L41.6629 7.76545C42.4828 7.88529 42.8096 8.89314 42.216 9.47129L39.8768 11.7497C39.6409 11.9794 39.5333 12.3105 39.5889 12.6351L40.1408 15.8526C40.2809 16.6696 39.4233 17.2926 38.6897 16.9067L35.7988 15.3864C35.5074 15.2332 35.1593 15.2332 34.8679 15.3864L31.977 16.9067C31.2433 17.2926 30.3858 16.6696 30.5259 15.8526L31.0778 12.6351C31.1334 12.3105 31.0258 11.9794 30.7899 11.7497L28.4507 9.4713C27.8571 8.89314 28.1839 7.88529 29.0038 7.76545L32.2387 7.29262C32.5641 7.24506 32.8452 7.0406 32.9908 6.74576L34.4366 3.81663Z" fill="#FFB800"/>
<path d="M59.1033 3.48338C59.4701 2.74021 60.5299 2.74021 60.8967 3.48338L62.3426 6.4125C62.4881 6.70735 62.7693 6.91181 63.0947 6.95937L66.3296 7.4322C67.1495 7.55204 67.4763 8.55988 66.8827 9.13804L64.5435 11.4164C64.3076 11.6462 64.1999 11.9773 64.2556 12.3018L64.8074 15.5194C64.9476 16.3363 64.09 16.9593 63.3564 16.5735L60.4655 15.0532C60.1741 14.9 59.826 14.9 59.5346 15.0532L56.6437 16.5735C55.91 16.9593 55.0525 16.3363 55.1926 15.5194L55.7444 12.3018C55.8001 11.9773 55.6924 11.6462 55.4566 11.4164L53.1174 9.13804C52.5238 8.55988 52.8506 7.55204 53.6705 7.4322L56.9054 6.95937C57.2307 6.91181 57.5119 6.70735 57.6575 6.4125L59.1033 3.48338Z" stroke="#FFB800" stroke-linecap="round" stroke-linejoin="round"/>
<path d="M59.4366 3.81663C59.8035 3.07346 60.8632 3.07346 61.23 3.81663L62.6759 6.74576C62.8214 7.0406 63.1026 7.24506 63.428 7.29262L66.6629 7.76545C67.4828 7.88529 67.8096 8.89314 67.216 9.47129L64.8768 11.7497C64.6409 11.9794 64.5333 12.3105 64.5889 12.6351L65.1408 15.8526C65.2809 16.6696 64.4233 17.2926 63.6897 16.9067L60.7988 15.3864C60.5074 15.2332 60.1593 15.2332 59.8679 15.3864L56.977 16.9067C56.2433 17.2926 55.3858 16.6696 55.5259 15.8526L56.0778 12.6351C56.1334 12.3105 56.0258 11.9794 55.7899 11.7497L53.4507 9.4713C52.8571 8.89314 53.1839 7.88529 54.0038 7.76545L57.2387 7.29262C57.5641 7.24506 57.8452 7.0406 57.9908 6.74576L59.4366 3.81663Z" fill="#FFB800"/>
<path d="M84.1033 3.48338C84.4701 2.74021 85.5299 2.74021 85.8967 3.48338L87.3426 6.4125C87.4881 6.70735 87.7693 6.91181 88.0947 6.95937L91.3296 7.4322C92.1495 7.55204 92.4763 8.55988 91.8827 9.13804L89.5435 11.4164C89.3076 11.6462 89.1999 11.9773 89.2556 12.3018L89.8074 15.5194C89.9476 16.3363 89.09 16.9593 88.3564 16.5735L85.4655 15.0532C85.1741 14.9 84.826 14.9 84.5346 15.0532L81.6437 16.5735C80.91 16.9593 80.0525 16.3363 80.1926 15.5194L80.7444 12.3018C80.8001 11.9773 80.6924 11.6462 80.4566 11.4164L78.1174 9.13804C77.5238 8.55988 77.8506 7.55204 78.6705 7.4322L81.9054 6.95937C82.2307 6.91181 82.5119 6.70735 82.6575 6.4125L84.1033 3.48338Z" stroke="#FFB800" stroke-linecap="round" stroke-linejoin="round"/>
<path d="M84.4366 3.81663C84.8035 3.07346 85.8632 3.07346 86.23 3.81663L87.6759 6.74576C87.8214 7.0406 88.1026 7.24506 88.428 7.29262L91.6629 7.76545C92.4828 7.88529 92.8096 8.89314 92.216 9.47129L89.8768 11.7497C89.6409 11.9794 89.5333 12.3105 89.5889 12.6351L90.1408 15.8526C90.2809 16.6696 89.4233 17.2926 88.6897 16.9067L85.7988 15.3864C85.5074 15.2332 85.1593 15.2332 84.8679 15.3864L81.977 16.9067C81.2433 17.2926 80.3858 16.6696 80.5259 15.8526L81.0778 12.6351C81.1334 12.3105 81.0258 11.9794 80.7899 11.7497L78.4507 9.4713C77.8571 8.89314 78.1839 7.88529 79.0038 7.76545L82.2387 7.29262C82.5641 7.24506 82.8452 7.0406 82.9908 6.74576L84.4366 3.81663Z" fill="#FFB800"/>
<path d="M109.103 3.48338C109.47 2.74021 110.53 2.74021 110.897 3.48338L112.343 6.4125C112.488 6.70735 112.769 6.91181 113.095 6.95937L116.33 7.4322C117.149 7.55204 117.476 8.55988 116.883 9.13804L114.543 11.4164C114.308 11.6462 114.2 11.9773 114.256 12.3018L114.807 15.5194C114.948 16.3363 114.09 16.9593 113.356 16.5735L110.465 15.0532C110.174 14.9 109.826 14.9 109.535 15.0532L106.644 16.5735C105.91 16.9593 105.052 16.3363 105.193 15.5194L105.744 12.3018C105.8 11.9773 105.692 11.6462 105.457 11.4164L103.117 9.13804C102.524 8.55988 102.851 7.55204 103.67 7.4322L106.905 6.95937C107.231 6.91181 107.512 6.70735 107.657 6.4125L109.103 3.48338Z" stroke="#FFB800" stroke-linecap="round" stroke-linejoin="round"/>
<path d="M109.437 3.81663C109.803 3.07346 110.863 3.07346 111.23 3.81663L112.676 6.74576C112.821 7.0406 113.103 7.24506 113.428 7.29262L116.663 7.76545C117.483 7.88529 117.81 8.89314 117.216 9.47129L114.877 11.7497C114.641 11.9794 114.533 12.3105 114.589 12.6351L115.141 15.8526C115.281 16.6696 114.423 17.2926 113.69 16.9067L110.799 15.3864C110.507 15.2332 110.159 15.2332 109.868 15.3864L106.977 16.9067C106.243 17.2926 105.386 16.6696 105.526 15.8526L106.078 12.6351C106.133 12.3105 106.026 11.9794 105.79 11.7497L103.451 9.4713C102.857 8.89314 103.184 7.88529 104.004 7.76545L107.239 7.29262C107.564 7.24506 107.845 7.0406 107.991 6.74576L109.437 3.81663Z" fill="#FFB800"/>
</svg>
