<svg width="140" height="140" viewBox="0 0 140 140" fill="none" xmlns="http://www.w3.org/2000/svg">
<g filter="url(#filter0_f_1_86)">
<circle cx="70" cy="70" r="50" fill="#B71405"/>
</g>
<circle cx="70" cy="70" r="50" fill="#B71405"/>
<path d="M51.1838 45H88.8092C90.2933 45.0678 91.3774 45.7876 92.1627 46.9572C92.6885 47.7408 92.9129 48.6171 92.9129 49.552C92.9102 52.3319 92.9129 55.1118 92.9129 57.8918C92.9129 66.7519 92.9169 75.6119 92.9102 84.472C92.9088 86.3249 92.1276 87.7709 90.419 88.6941C89.7581 89.0513 89.039 89.2091 88.2888 89.2417C87.986 89.2547 87.6819 89.2561 87.3791 89.2443C86.9898 89.23 86.8384 89.3943 86.8411 89.7672C86.8492 90.9212 86.8452 92.0751 86.8438 93.2304C86.8438 93.542 86.8073 93.8419 86.6722 94.1327C86.4086 94.6973 85.9598 94.9907 85.3259 94.992C83.2024 94.9998 81.0789 95.0063 78.9554 94.9894C78.0485 94.9828 77.4659 94.3804 77.4389 93.4312C77.4064 92.2942 77.4321 91.1559 77.428 90.0175C77.4253 89.26 77.4132 89.2456 76.6454 89.2456C72.2133 89.2456 67.7798 89.2456 63.3476 89.2456C62.5812 89.2456 62.5731 89.2561 62.5704 90.0188C62.5677 91.092 62.5771 92.1651 62.5677 93.2382C62.5555 94.4574 61.9905 94.9946 60.7389 94.9946C58.8005 94.9946 56.8622 94.9946 54.9239 94.9946C53.7655 94.9946 53.1749 94.4456 53.1586 93.3256C53.1411 92.1716 53.1586 91.0176 53.1519 89.8624C53.1492 89.2952 53.1019 89.2404 52.5179 89.2482C51.6353 89.26 50.7648 89.2169 49.943 88.8597C48.1331 88.076 47.2369 86.6913 47.0869 84.8162C47.0761 84.6871 47.0828 84.5568 47.0828 84.4264C47.0828 72.8346 47.0842 61.2441 47.0815 49.6524C47.0815 47.9377 47.7438 46.5621 49.2361 45.5815C49.8294 45.1917 50.4972 45.0769 51.1838 45Z" fill="white"/>
<path d="M49.1641 66.8244C49.1641 60.851 49.1641 54.8775 49.1641 48.904C49.1641 47.6516 49.7609 47.0834 51.0773 47.0834C63.6993 47.0834 76.3212 47.0834 88.9446 47.0834C90.2253 47.0834 90.8307 47.661 90.8307 48.8784C90.8307 60.8753 90.8307 72.8735 90.8307 84.8703C90.8307 86.0864 90.2211 86.6667 88.9446 86.6667C76.3041 86.6667 63.665 86.6667 51.0245 86.6667C49.7837 86.6667 49.1655 86.0783 49.1655 84.896C49.1655 78.8726 49.1655 72.8478 49.1655 66.8244H49.1641Z" fill="#B71405"/>
<path d="M57.5372 88.7584C58.0906 88.7584 58.6459 88.7769 59.1974 88.751C59.5102 88.738 59.5842 88.8509 59.5805 89.1451C59.5657 90.2758 59.5639 91.4064 59.5805 92.5352C59.5861 92.8479 59.4806 92.9219 59.1863 92.9164C58.0555 92.9016 56.9246 92.8997 55.7956 92.9164C55.4847 92.9219 55.4088 92.8165 55.4143 92.5222C55.4291 91.3916 55.431 90.261 55.4143 89.1322C55.4088 88.8195 55.5143 88.7399 55.8086 88.751C56.3842 88.7713 56.9616 88.7565 57.5391 88.7565L57.5372 88.7584Z" fill="#B71405"/>
<path d="M82.5372 88.7584C83.0906 88.7584 83.6459 88.7769 84.1974 88.751C84.5102 88.738 84.5842 88.8509 84.5805 89.1451C84.5657 90.2758 84.5639 91.4064 84.5805 92.5352C84.5861 92.8479 84.4806 92.9219 84.1863 92.9164C83.0555 92.9016 81.9246 92.8997 80.7956 92.9164C80.4847 92.9219 80.4088 92.8165 80.4143 92.5222C80.4291 91.3916 80.431 90.261 80.4143 89.1322C80.4088 88.8195 80.5143 88.7399 80.8086 88.751C81.3842 88.7713 81.9616 88.7565 82.5391 88.7565L82.5372 88.7584Z" fill="#B71405"/>
<path d="M66.2352 67.5771C65.0416 67.214 64.0507 67.8475 63.1937 68.8342C62.8477 69.2336 62.4205 69.5742 62.019 69.9298C61.3404 70.5295 60.4077 70.5358 59.8075 69.9573C59.2181 69.3889 59.2398 68.5512 59.8765 67.9427C60.4037 67.4381 60.9335 66.9335 61.4905 66.4564C61.7622 66.2248 61.727 66.0908 61.477 65.8755C60.9471 65.4172 60.4429 64.9351 59.9346 64.4556C59.2425 63.8045 59.1979 62.9568 59.8197 62.3733C60.4402 61.7898 61.3661 61.8186 62.0677 62.4547C62.8139 63.1321 63.5546 63.8145 64.2846 64.5069C64.4738 64.686 64.659 64.7749 64.9388 64.7711C66 64.7548 67.0625 64.7561 68.125 64.7711C68.4034 64.7749 68.4967 64.7135 68.4927 64.4418C68.4751 63.4276 68.4778 62.4121 68.4927 61.3979C68.4954 61.1851 68.4034 61.0524 68.2547 60.9146C67.5113 60.2335 66.7719 59.5498 66.0365 58.8624C65.3146 58.1888 65.2606 57.3374 65.8973 56.7464C66.5326 56.1566 67.4504 56.2042 68.1817 56.8716C68.7103 57.3536 69.2429 57.8319 69.7525 58.3315C69.9566 58.5319 70.0729 58.5118 70.2662 58.324C70.7893 57.8157 71.3314 57.3236 71.8734 56.8315C72.5723 56.1979 73.5023 56.1704 74.1214 56.7551C74.7284 57.3286 74.7013 58.1725 74.0349 58.8048C73.305 59.4972 72.5669 60.1834 71.8167 60.857C71.6085 61.0436 71.5098 61.2276 71.5139 61.5031C71.5328 62.486 71.5287 63.4702 71.5152 64.4543C71.5125 64.6885 71.5666 64.7761 71.8437 64.7724C72.9562 64.7573 74.0687 64.7586 75.1812 64.7724C75.4178 64.7749 75.5503 64.6684 75.6935 64.5332C76.4303 63.8471 77.167 63.1609 77.9104 62.4798C78.6174 61.8324 79.5218 61.7823 80.1584 62.3495C80.8073 62.9268 80.7722 63.7945 80.0611 64.4668C79.542 64.9577 79.027 65.4522 78.4836 65.9193C78.243 66.1259 78.2741 66.2386 78.4944 66.4314C79.0216 66.8909 79.5272 67.3742 80.0354 67.8513C80.7586 68.5312 80.8154 69.3751 80.1828 69.9686C79.5488 70.5633 78.6242 70.5183 77.8983 69.8521C77.1683 69.1823 76.437 68.5124 75.7192 67.83C75.53 67.6497 75.3407 67.5658 75.0636 67.5696C74.0025 67.5846 72.94 67.5846 71.8775 67.5696C71.5977 67.5658 71.5071 67.6297 71.5125 67.9001C71.5301 68.8993 71.5274 69.8985 71.5139 70.8977C71.5112 71.1205 71.5855 71.2745 71.7545 71.4273C72.5007 72.1047 73.2387 72.7896 73.9741 73.4782C74.6959 74.1544 74.746 75.0058 74.1079 75.5956C73.4699 76.1853 72.5534 76.1352 71.8234 75.4666C71.3206 75.0058 70.8015 74.5563 70.3297 74.0692C70.0607 73.7913 69.9093 73.8388 69.666 74.0843C69.1983 74.5538 68.6968 74.997 68.2047 75.4466C67.4464 76.139 66.5231 76.1928 65.8837 75.5843C65.2552 74.9858 65.3173 74.1469 66.0459 73.4682C66.7583 72.8034 67.468 72.136 68.1939 71.4836C68.4034 71.2958 68.4967 71.1093 68.4913 70.835C68.4737 69.8521 68.4764 68.868 68.49 67.8838C68.4927 67.6447 68.4318 67.5595 68.1588 67.5696C67.6032 67.5896 67.0463 67.5758 66.2365 67.5758L66.2352 67.5771Z" fill="white"/>
<path d="M83.6539 60.5539C83.6539 58.7446 83.6539 56.9341 83.6539 55.1248C83.6539 54.1719 84.2555 53.5346 85.1544 53.5258C86.0736 53.5171 86.6873 54.1607 86.6873 55.1411C86.6873 58.7759 86.69 62.4108 86.6873 66.0456C86.686 67.1513 85.6627 67.8524 84.6218 67.4755C84.0162 67.2564 83.658 66.7481 83.6566 66.0757C83.6526 64.2351 83.6553 62.3945 83.6553 60.5527L83.6539 60.5539Z" fill="white"/>
<defs>
<filter id="filter0_f_1_86" x="0" y="0" width="140" height="140" filterUnits="userSpaceOnUse" color-interpolation-filters="sRGB">
<feFlood flood-opacity="0" result="BackgroundImageFix"/>
<feBlend mode="normal" in="SourceGraphic" in2="BackgroundImageFix" result="shape"/>
<feGaussianBlur stdDeviation="10" result="effect1_foregroundBlur_1_86"/>
</filter>
</defs>
</svg>
