<svg width="17" height="16" viewBox="0 0 17 16" fill="none" xmlns="http://www.w3.org/2000/svg">
<path d="M8.67324 3.73291C6.46582 3.73291 4.68529 5.48561 4.68529 7.65855C4.68529 9.83149 6.46582 11.5842 8.67324 11.5842C10.8807 11.5842 12.6612 9.83149 12.6612 7.65855C12.6612 5.48561 10.8807 3.73291 8.67324 3.73291ZM8.67324 10.2107C7.24675 10.2107 6.08056 9.06617 6.08056 7.65855C6.08056 6.25092 7.24327 5.10637 8.67324 5.10637C10.1032 5.10637 11.2659 6.25092 11.2659 7.65855C11.2659 9.06617 10.0997 10.2107 8.67324 10.2107ZM13.7545 3.57233C13.7545 4.0814 13.338 4.48797 12.8243 4.48797C12.3072 4.48797 11.8941 4.07798 11.8941 3.57233C11.8941 3.06668 12.3106 2.65669 12.8243 2.65669C13.338 2.65669 13.7545 3.06668 13.7545 3.57233ZM16.3958 4.50164C16.3368 3.27509 16.0522 2.18862 15.1393 1.29348C14.23 0.398336 13.1263 0.118178 11.8803 0.0566796C10.5961 -0.0150683 6.74695 -0.0150683 5.46275 0.0566796C4.22021 0.114761 3.11649 0.39492 2.20367 1.29006C1.29085 2.1852 1.00972 3.27167 0.947243 4.49822C0.874356 5.76235 0.874356 9.55133 0.947243 10.8155C1.00625 12.042 1.29085 13.1285 2.20367 14.0236C3.11649 14.9188 4.21674 15.1989 5.46275 15.2604C6.74695 15.3322 10.5961 15.3322 11.8803 15.2604C13.1263 15.2023 14.23 14.9222 15.1393 14.0236C16.0487 13.1285 16.3333 12.042 16.3958 10.8155C16.4687 9.55133 16.4687 5.76577 16.3958 4.50164ZM14.7367 12.1718C14.466 12.8415 13.9419 13.3574 13.2582 13.6273C12.2343 14.027 9.80473 13.9348 8.67324 13.9348C7.54176 13.9348 5.10873 14.0236 4.08832 13.6273C3.40804 13.3608 2.88395 12.8449 2.60976 12.1718C2.20367 11.1639 2.29738 8.77235 2.29738 7.65855C2.29738 6.54475 2.20714 4.14973 2.60976 3.14526C2.88048 2.47561 3.40457 1.95971 4.08832 1.6898C5.1122 1.29006 7.54176 1.38231 8.67324 1.38231C9.80473 1.38231 12.2378 1.29348 13.2582 1.6898C13.9384 1.95629 14.4625 2.47219 14.7367 3.14526C15.1428 4.15315 15.0491 6.54475 15.0491 7.65855C15.0491 8.77235 15.1428 11.1674 14.7367 12.1718Z" fill="white"/>
</svg>
