<svg width="17" height="16" viewBox="0 0 17 16" fill="none" xmlns="http://www.w3.org/2000/svg">
<path d="M4.42487 15.4648V5.62944H1.09122V15.4648H4.42487ZM2.75847 4.28578C3.92098 4.28578 4.64458 3.53054 4.64458 2.58675C4.62292 1.62167 3.92102 0.88739 2.78053 0.88739C1.64022 0.88739 0.894531 1.62168 0.894531 2.58675C0.894531 3.53059 1.61796 4.28578 2.73671 4.28578H2.75837H2.75847ZM6.27003 15.4648H9.60369V9.97224C9.60369 9.67829 9.62534 9.38464 9.71338 9.17451C9.95438 8.5872 10.5029 7.97892 11.4238 7.97892C12.6301 7.97892 13.1127 8.88085 13.1127 10.203V15.4647H16.4461V9.82521C16.4461 6.80419 14.8015 5.39853 12.6081 5.39853C10.8098 5.39853 10.0202 6.38428 9.58151 7.05567H9.60376V5.62923H6.27011C6.31386 6.55213 6.27011 15.4646 6.27011 15.4646L6.27003 15.4648Z" fill="white"/>
</svg>
