<svg width="14" height="17" viewBox="0 0 14 17" fill="none" xmlns="http://www.w3.org/2000/svg">
<path fill-rule="evenodd" clip-rule="evenodd" d="M6.26581 16.7186C6.266 16.7187 6.26614 16.7188 6.53486 16.3372L6.26581 16.7186ZM6.80391 16.7186L6.80559 16.7174L6.80984 16.7144L6.82468 16.7038C6.83743 16.6946 6.85577 16.6814 6.8793 16.6641C6.92635 16.6295 6.99426 16.5789 7.0801 16.5129C7.25169 16.3809 7.49507 16.1875 7.78634 15.9385C8.36822 15.4409 9.14451 14.7188 9.92202 13.8193C11.4658 12.0334 13.0697 9.48465 13.0697 6.57076C13.0697 4.82898 12.3819 3.15797 11.1567 1.9255C9.93136 0.692948 8.26889 0 6.53486 0C4.80084 0 3.13837 0.692948 1.91303 1.9255C0.687841 3.15797 0 4.82898 0 6.57076C0 9.48465 1.60389 12.0334 3.1477 13.8193C3.92521 14.7188 4.70151 15.4409 5.28339 15.9385C5.57466 16.1875 5.81803 16.3809 5.98962 16.5129C6.07546 16.5789 6.14338 16.6295 6.19043 16.6641C6.21395 16.6814 6.2323 16.6946 6.24504 16.7038L6.25989 16.7144L6.26413 16.7174L6.26581 16.7186C6.42699 16.8321 6.64274 16.8321 6.80391 16.7186ZM6.53486 16.3372L6.80391 16.7186C6.80373 16.7187 6.80359 16.7188 6.53486 16.3372ZM8.86874 6.53486C8.86874 7.82382 7.82382 8.86874 6.53486 8.86874C5.24591 8.86874 4.20098 7.82382 4.20098 6.53486C4.20098 5.24591 5.24591 4.20098 6.53486 4.20098C7.82382 4.20098 8.86874 5.24591 8.86874 6.53486Z" fill="white"/>
</svg>
