<svg width="56" height="53" viewBox="0 0 56 53" fill="none" xmlns="http://www.w3.org/2000/svg">
<ellipse opacity="0.1" cx="28" cy="26.5" rx="28" ry="26.5" fill="url(#paint0_linear_18_3)"/>
<path d="M36.7202 36.0607C34.3208 38.4601 28.176 36.2055 22.9954 31.025C17.8149 25.8444 15.5603 19.6996 17.9597 17.3002L19.5396 15.7204C20.6302 14.6297 22.4273 14.6586 23.5535 15.7848L26.0006 18.2318C27.1268 19.358 27.1556 21.1551 26.0649 22.2458L25.7256 22.5851C25.1368 23.174 25.0792 24.1239 25.6263 24.787C26.1541 25.4265 26.7231 26.0635 27.34 26.6805C27.9569 27.2974 28.5939 27.8664 29.2335 28.3941C29.8965 28.9413 30.8465 28.8837 31.4353 28.2948L31.7747 27.9555C32.8653 26.8648 34.6624 26.8937 35.7886 28.0199L38.2356 30.4669C39.3619 31.5931 39.3907 33.3902 38.3 34.4809L36.7202 36.0607Z" fill="url(#paint1_linear_18_3)"/>
<path d="M34.9708 22.281C34.6713 21.5503 34.2248 20.8657 33.6315 20.2723C33.0717 19.7125 32.4306 19.2834 31.7461 18.9852" stroke="#C01919" stroke-linecap="round"/>
<path d="M31.7503 14.8145C33.3889 15.4081 34.9263 16.3617 36.24 17.6754C37.5867 19.0221 38.555 20.6038 39.145 22.2887" stroke="#C01919" stroke-linecap="round"/>
<defs>
<linearGradient id="paint0_linear_18_3" x1="28" y1="0" x2="28" y2="53" gradientUnits="userSpaceOnUse">
<stop stop-color="#B71405"/>
<stop offset="1" stop-color="#B71405"/>
</linearGradient>
<linearGradient id="paint1_linear_18_3" x1="28.0498" y1="14.9209" x2="28.0498" y2="37.0204" gradientUnits="userSpaceOnUse">
<stop stop-color="#B71405"/>
<stop offset="0.0001" stop-color="#B71405"/>
<stop offset="1" stop-color="#F32020"/>
</linearGradient>
</defs>
</svg>
