<svg width="18" height="18" viewBox="0 0 18 18" fill="none" xmlns="http://www.w3.org/2000/svg">
<path d="M16.7344 8.86841C16.7344 4.52281 13.2116 1 8.86597 1C4.52037 1 0.997558 4.52281 0.997559 8.86841C0.997559 13.214 4.52037 16.7368 8.86597 16.7368C13.2116 16.7368 16.7344 13.214 16.7344 8.86841Z" fill="#B71405"/>
<path d="M8.11169 11.7322L10.2447 9.75158C10.5799 9.44028 10.5799 8.9097 10.2447 8.5984L8.11169 6.61776M8.86597 16.7368C13.2116 16.7368 16.7344 13.214 16.7344 8.86841C16.7344 4.52281 13.2116 1 8.86597 1C4.52037 1 0.997558 4.52281 0.997559 8.86841C0.997559 13.214 4.52037 16.7368 8.86597 16.7368Z" stroke="white" stroke-linecap="round"/>
</svg>
