<svg width="21" height="194" viewBox="0 0 21 194" fill="none" xmlns="http://www.w3.org/2000/svg">
<path d="M12.2929 192.739C12.6834 193.129 13.3166 193.129 13.7071 192.739L20.0711 186.375C20.4616 185.984 20.4616 185.351 20.0711 184.96C19.6805 184.57 19.0474 184.57 18.6569 184.96L13 190.617L7.34315 184.96C6.95262 184.57 6.31946 184.57 5.92893 184.96C5.53841 185.351 5.53841 185.984 5.92893 186.375L12.2929 192.739ZM12 72L12 192.031H14L14 72H12Z" fill="white"/>
<path d="M13.888 39.3474L13.44 37.7314C13.8133 37.6994 14.128 37.5447 14.384 37.2674C14.64 36.99 14.768 36.6167 14.768 36.1474C14.768 35.7847 14.6827 35.502 14.512 35.2994C14.3413 35.086 14.128 34.9794 13.872 34.9794C13.424 34.9794 13.136 35.2834 13.008 35.8914L12.752 37.0434C12.6027 37.7154 12.3253 38.2327 11.92 38.5954C11.5147 38.958 11.0347 39.1394 10.48 39.1394C9.79733 39.1394 9.21067 38.862 8.72 38.3074C8.21867 37.7527 7.968 37.0754 7.968 36.2754C7.968 35.7634 8.04267 35.31 8.192 34.9154C8.34133 34.5207 8.53867 34.2167 8.784 34.0034C9.01867 33.7794 9.248 33.6087 9.472 33.4914C9.696 33.374 9.92 33.2994 10.144 33.2674L10.592 34.8354C10.2933 34.878 10.0267 35.0167 9.792 35.2514C9.54667 35.4754 9.424 35.8167 9.424 36.2754C9.424 36.5954 9.51467 36.862 9.696 37.0754C9.86667 37.2887 10.0747 37.3954 10.32 37.3954C10.7573 37.3954 11.0293 37.134 11.136 36.6114L11.376 35.4274C11.536 34.702 11.824 34.1474 12.24 33.7634C12.656 33.3794 13.1573 33.1874 13.744 33.1874C14.3947 33.1874 14.976 33.4487 15.488 33.9714C15.9893 34.4834 16.24 35.2034 16.24 36.1314C16.24 36.6647 16.16 37.1447 16 37.5714C15.84 37.9874 15.6373 38.318 15.392 38.5634C15.136 38.798 14.8853 38.9847 14.64 39.1234C14.384 39.2514 14.1333 39.326 13.888 39.3474ZM9.68 28.0017C9.68 28.5991 9.89867 29.1057 10.336 29.5217C10.7627 29.9377 11.3493 30.1457 12.096 30.1457C12.8533 30.1457 13.4507 29.9377 13.888 29.5217C14.3253 29.0951 14.544 28.5777 14.544 27.9697C14.544 27.4257 14.4 26.9937 14.112 26.6737C13.8133 26.3431 13.4773 26.1244 13.104 26.0177L13.696 24.3857C14.3893 24.5991 14.9867 25.0151 15.488 25.6337C15.9893 26.2417 16.24 27.0204 16.24 27.9697C16.24 29.1111 15.8453 30.0711 15.056 30.8497C14.2667 31.6177 13.28 32.0017 12.096 32.0017C10.9013 32.0017 9.91467 31.6231 9.136 30.8657C8.35733 30.0977 7.968 29.1484 7.968 28.0177C7.968 27.0471 8.21867 26.2577 8.72 25.6497C9.22133 25.0311 9.824 24.6311 10.528 24.4497L11.136 26.1137C10.7307 26.2204 10.3893 26.4284 10.112 26.7377C9.824 27.0364 9.68 27.4577 9.68 28.0017ZM8.16 18.1775H10.048C10.016 18.3908 10 18.5935 10 18.7855C10 20.1828 10.7627 20.8815 12.288 20.8815H16V22.7375H8.208V20.9295H9.456C9.04 20.7482 8.71467 20.4548 8.48 20.0495C8.23467 19.6442 8.112 19.1855 8.112 18.6735C8.112 18.5028 8.128 18.3375 8.16 18.1775ZM13.92 14.8342C14.3573 14.4076 14.576 13.8902 14.576 13.2822C14.576 12.6742 14.3573 12.1622 13.92 11.7462C13.4827 11.3196 12.8747 11.1062 12.096 11.1062C11.328 11.1062 10.7307 11.3196 10.304 11.7462C9.86667 12.1622 9.648 12.6742 9.648 13.2822C9.648 13.8902 9.86667 14.4076 10.304 14.8342C10.7307 15.2502 11.328 15.4582 12.096 15.4582C12.864 15.4582 13.472 15.2502 13.92 14.8342ZM7.968 13.2822C7.968 12.1089 8.35733 11.1436 9.136 10.3862C9.91467 9.61825 10.9013 9.23425 12.096 9.23425C13.2907 9.23425 14.2827 9.61825 15.072 10.3862C15.8507 11.1436 16.24 12.1089 16.24 13.2822C16.24 14.4449 15.8507 15.4102 15.072 16.1782C14.2827 16.9356 13.2907 17.3142 12.096 17.3142C10.9013 17.3142 9.91467 16.9356 9.136 16.1782C8.35733 15.4102 7.968 14.4449 7.968 13.2822ZM16 5.58462V7.44062H4.416V5.58462H16ZM16 1.33462V3.19062H4.416V1.33462H16Z" fill="white"/>
</svg>
