<svg width="140" height="140" viewBox="0 0 140 140" fill="none" xmlns="http://www.w3.org/2000/svg">
<g filter="url(#filter0_f_1_99)">
<circle cx="70" cy="70" r="50" fill="#B71405"/>
</g>
<circle cx="70" cy="70" r="50" fill="#B71405"/>
<path d="M103.336 90.3272C102.567 91.1255 102.273 91.1447 101.341 90.4585C98.9873 88.7282 96.736 86.8669 94.5975 84.8589C94.4779 84.7468 94.3927 84.5634 94.1394 84.5718C93.97 86.1319 93.9804 87.6836 94.2835 89.2291C94.3225 89.4266 94.3737 89.6245 94.3864 89.8248C94.4502 90.8272 93.9025 91.4454 92.9342 91.4487C89.8755 91.4585 86.8169 91.4637 83.7582 91.4637C71.6099 91.4651 59.4616 91.4646 47.3129 91.4642C45.7747 91.4642 45.3217 90.8549 45.6239 89.2643C45.9143 87.7352 45.994 86.1929 45.7661 84.6342C45.536 84.6159 45.4454 84.8289 45.3112 84.9532C43.1447 86.9617 40.8797 88.8412 38.5016 90.5744C38.2886 90.7296 38.0802 90.8976 37.8106 90.9276C37.324 90.982 36.9584 90.7831 36.7645 90.3169C36.5416 89.7817 36.7251 89.3529 37.1582 89.0279C38.1577 88.2774 39.1875 87.5677 40.1612 86.7834C45.5224 82.4639 50.0563 77.3094 54.1593 71.7388C59.8236 64.0481 64.7177 55.8776 68.3527 46.9382C68.4701 46.6498 68.5947 46.3632 68.6935 46.0677C68.9137 45.4082 69.3133 44.9935 70.0219 45.0001C70.7033 45.0062 71.0762 45.4274 71.3041 46.0451C71.9674 47.8449 72.719 49.6067 73.5527 51.3272C79.0566 62.6935 85.8604 73.1085 94.6278 82.0774C97.054 84.5592 99.6651 86.8153 102.501 88.784C102.839 89.0185 103.156 89.2615 103.336 89.6527V90.3267V90.3272Z" fill="white"/>
<path d="M70.0621 47.7468C71.9135 52.2667 74.1179 56.4742 76.5214 60.5718C80.8101 67.8847 85.5465 74.8615 91.2297 81.1188C91.7526 81.6945 92.2886 82.2596 92.8491 82.7962C93.1715 83.1051 93.2854 83.3806 93.2031 83.8692C92.875 85.8183 92.7715 87.7842 93.1296 89.7459C93.1965 90.1129 93.0769 90.1676 92.7574 90.1667C88.6559 90.1575 84.5549 90.157 80.4534 90.1676C80.1235 90.1686 79.9028 89.987 79.6694 89.82C76.8574 87.8051 74.9222 85.0527 73.4487 81.9236C72.4462 79.7954 71.7074 77.5655 71.1271 75.2804C70.9718 74.6693 70.7271 74.1686 70.0366 74.1676C69.3472 74.1666 69.1039 74.6644 68.9439 75.2765C67.9513 79.0729 66.6067 82.7109 64.3007 85.8996C63.19 87.4351 61.8892 88.773 60.3526 89.8626C60.066 90.066 59.7785 90.1696 59.4194 90.1686C55.4083 90.1565 51.3972 90.1531 47.386 90.171C46.9201 90.173 46.7987 90.1076 46.8797 89.5793C47.1653 87.7116 47.106 85.8386 46.8001 83.9733C46.7413 83.6135 46.7159 83.3046 47.0425 82.9763C52.257 77.733 56.5698 71.745 60.5517 65.4954C64.1049 59.919 67.3419 54.1576 69.9002 48.0151C69.9242 47.957 69.9651 47.9066 70.0625 47.7468H70.0621Z" fill="#B71405"/>
<path d="M77.0821 90.1707H62.9407C66.3582 86.8361 68.4245 82.7383 70.0046 78.0494C71.5933 82.7016 73.6356 86.8298 77.0821 90.1707Z" fill="#B71405"/>
<defs>
<filter id="filter0_f_1_99" x="0" y="0" width="140" height="140" filterUnits="userSpaceOnUse" color-interpolation-filters="sRGB">
<feFlood flood-opacity="0" result="BackgroundImageFix"/>
<feBlend mode="normal" in="SourceGraphic" in2="BackgroundImageFix" result="shape"/>
<feGaussianBlur stdDeviation="10" result="effect1_foregroundBlur_1_99"/>
</filter>
</defs>
</svg>
