<svg width="1172" height="741" viewBox="0 0 1172 741" fill="none" xmlns="http://www.w3.org/2000/svg">
<g filter="url(#filter0_f_53_8)">
<ellipse cx="586.195" cy="466.23" rx="269.195" ry="63.2394" fill="url(#paint0_linear_53_8)"/>
</g>
<g filter="url(#filter1_d_53_8)">
<ellipse cx="586.195" cy="466.23" rx="269.195" ry="63.2394" fill="url(#paint1_linear_53_8)"/>
</g>
<path d="M338.912 31.2V39.648H320.992V50.272H338.4V58.72H320.992V76H312.16V31.2H338.912ZM345.987 76V31.2H354.819V76H345.987ZM402.153 76H392.553L389.865 67.936H372.008L369.32 76H359.784L375.464 31.2H386.409L402.153 76ZM380.969 41.376L374.824 59.68H387.112L380.969 41.376ZM400.564 31.2H433.524V39.648H421.428V76H412.596V39.648H400.564V31.2ZM617.343 54.4V49.756H626.019V76H620.835V54.4H617.343ZM634.166 76.252C633.254 76.252 632.498 75.976 631.898 75.424C631.322 74.848 631.034 74.14 631.034 73.3C631.034 72.46 631.322 71.764 631.898 71.212C632.498 70.636 633.254 70.348 634.166 70.348C635.054 70.348 635.786 70.636 636.362 71.212C636.938 71.764 637.226 72.46 637.226 73.3C637.226 74.14 636.938 74.848 636.362 75.424C635.786 75.976 635.054 76.252 634.166 76.252ZM654.678 56.308C654.438 55.3 654.018 54.544 653.418 54.04C652.842 53.536 652.002 53.284 650.898 53.284C649.242 53.284 648.018 53.956 647.226 55.3C646.458 56.62 646.062 58.78 646.038 61.78C646.614 60.82 647.454 60.076 648.558 59.548C649.662 58.996 650.862 58.72 652.158 58.72C653.718 58.72 655.098 59.056 656.298 59.728C657.498 60.4 658.434 61.384 659.106 62.68C659.778 63.952 660.114 65.488 660.114 67.288C660.114 68.992 659.766 70.516 659.07 71.86C658.398 73.18 657.402 74.212 656.082 74.956C654.762 75.7 653.19 76.072 651.366 76.072C648.87 76.072 646.902 75.52 645.462 74.416C644.046 73.312 643.05 71.776 642.474 69.808C641.922 67.816 641.646 65.368 641.646 62.464C641.646 58.072 642.402 54.76 643.914 52.528C645.426 50.272 647.814 49.144 651.078 49.144C653.598 49.144 655.554 49.828 656.946 51.196C658.338 52.564 659.142 54.268 659.358 56.308H654.678ZM651.006 62.86C649.734 62.86 648.666 63.232 647.802 63.976C646.938 64.72 646.506 65.8 646.506 67.216C646.506 68.632 646.902 69.748 647.694 70.564C648.51 71.38 649.65 71.788 651.114 71.788C652.41 71.788 653.43 71.392 654.174 70.6C654.942 69.808 655.326 68.74 655.326 67.396C655.326 66.004 654.954 64.9 654.21 64.084C653.49 63.268 652.422 62.86 651.006 62.86ZM672.747 63.4C672.747 60.928 673.299 58.72 674.403 56.776C675.531 54.808 677.055 53.284 678.975 52.204C680.919 51.1 683.091 50.548 685.491 50.548C688.299 50.548 690.759 51.268 692.871 52.708C694.983 54.148 696.459 56.14 697.299 58.684H691.503C690.927 57.484 690.111 56.584 689.055 55.984C688.023 55.384 686.823 55.084 685.455 55.084C683.991 55.084 682.683 55.432 681.531 56.128C680.403 56.8 679.515 57.76 678.867 59.008C678.243 60.256 677.931 61.72 677.931 63.4C677.931 65.056 678.243 66.52 678.867 67.792C679.515 69.04 680.403 70.012 681.531 70.708C682.683 71.38 683.991 71.716 685.455 71.716C686.823 71.716 688.023 71.416 689.055 70.816C690.111 70.192 690.927 69.28 691.503 68.08H697.299C696.459 70.648 694.983 72.652 692.871 74.092C690.783 75.508 688.323 76.216 685.491 76.216C683.091 76.216 680.919 75.676 678.975 74.596C677.055 73.492 675.531 71.968 674.403 70.024C673.299 68.08 672.747 65.872 672.747 63.4ZM704.52 53.68C703.632 53.68 702.888 53.404 702.288 52.852C701.712 52.276 701.424 51.568 701.424 50.728C701.424 49.888 701.712 49.192 702.288 48.64C702.888 48.064 703.632 47.776 704.52 47.776C705.408 47.776 706.14 48.064 706.716 48.64C707.316 49.192 707.616 49.888 707.616 50.728C707.616 51.568 707.316 52.276 706.716 52.852C706.14 53.404 705.408 53.68 704.52 53.68ZM707.004 56.056V76H701.964V56.056H707.004ZM718.212 60.196V69.844C718.212 70.516 718.368 71.008 718.68 71.32C719.016 71.608 719.568 71.752 720.336 71.752H722.676V76H719.508C715.26 76 713.136 73.936 713.136 69.808V60.196H710.76V56.056H713.136V51.124H718.212V56.056H722.676V60.196H718.212ZM745.741 56.056L733.393 85.432H728.029L732.349 75.496L724.357 56.056H730.009L735.157 69.988L740.377 56.056H745.741ZM762.796 72.004H771.076V76H757.756V50.872H762.796V72.004ZM777.195 53.68C776.307 53.68 775.563 53.404 774.963 52.852C774.387 52.276 774.099 51.568 774.099 50.728C774.099 49.888 774.387 49.192 774.963 48.64C775.563 48.064 776.307 47.776 777.195 47.776C778.083 47.776 778.815 48.064 779.391 48.64C779.991 49.192 780.291 49.888 780.291 50.728C780.291 51.568 779.991 52.276 779.391 52.852C778.815 53.404 778.083 53.68 777.195 53.68ZM779.679 56.056V76H774.639V56.056H779.679ZM794.163 60.196H790.671V76H785.559V60.196H783.291V56.056H785.559V55.048C785.559 52.6 786.255 50.8 787.647 49.648C789.039 48.496 791.139 47.956 793.947 48.028V52.276C792.723 52.252 791.871 52.456 791.391 52.888C790.911 53.32 790.671 54.1 790.671 55.228V56.056H794.163V60.196ZM816.329 65.596C816.329 66.316 816.281 66.964 816.185 67.54H801.605C801.725 68.98 802.229 70.108 803.117 70.924C804.005 71.74 805.097 72.148 806.393 72.148C808.265 72.148 809.597 71.344 810.389 69.736H815.825C815.249 71.656 814.145 73.24 812.513 74.488C810.881 75.712 808.877 76.324 806.501 76.324C804.581 76.324 802.853 75.904 801.317 75.064C799.805 74.2 798.617 72.988 797.753 71.428C796.913 69.868 796.493 68.068 796.493 66.028C796.493 63.964 796.913 62.152 797.753 60.592C798.593 59.032 799.769 57.832 801.281 56.992C802.793 56.152 804.533 55.732 806.501 55.732C808.397 55.732 810.089 56.14 811.577 56.956C813.089 57.772 814.253 58.936 815.069 60.448C815.909 61.936 816.329 63.652 816.329 65.596ZM811.109 64.156C811.085 62.86 810.617 61.828 809.705 61.06C808.793 60.268 807.677 59.872 806.357 59.872C805.109 59.872 804.053 60.256 803.189 61.024C802.349 61.768 801.833 62.812 801.641 64.156H811.109ZM834.346 58.972C834.994 58.012 835.882 57.232 837.01 56.632C838.162 56.032 839.47 55.732 840.934 55.732C842.638 55.732 844.174 56.152 845.542 56.992C846.934 57.832 848.026 59.032 848.818 60.592C849.634 62.128 850.042 63.916 850.042 65.956C850.042 67.996 849.634 69.808 848.818 71.392C848.026 72.952 846.934 74.164 845.542 75.028C844.174 75.892 842.638 76.324 840.934 76.324C839.446 76.324 838.138 76.036 837.01 75.46C835.906 74.86 835.018 74.092 834.346 73.156V76H829.306V49.36H834.346V58.972ZM844.894 65.956C844.894 64.756 844.642 63.724 844.138 62.86C843.658 61.972 843.01 61.3 842.194 60.844C841.402 60.388 840.538 60.16 839.602 60.16C838.69 60.16 837.826 60.4 837.01 60.88C836.218 61.336 835.57 62.008 835.066 62.896C834.586 63.784 834.346 64.828 834.346 66.028C834.346 67.228 834.586 68.272 835.066 69.16C835.57 70.048 836.218 70.732 837.01 71.212C837.826 71.668 838.69 71.896 839.602 71.896C840.538 71.896 841.402 71.656 842.194 71.176C843.01 70.696 843.658 70.012 844.138 69.124C844.642 68.236 844.894 67.18 844.894 65.956ZM862.38 71.356L867.42 56.056H872.784L865.404 76H859.284L851.94 56.056H857.34L862.38 71.356ZM874.679 65.956C874.679 63.94 875.075 62.152 875.867 60.592C876.683 59.032 877.775 57.832 879.143 56.992C880.535 56.152 882.083 55.732 883.787 55.732C885.275 55.732 886.571 56.032 887.675 56.632C888.803 57.232 889.703 57.988 890.375 58.9V56.056H895.451V76H890.375V73.084C889.727 74.02 888.827 74.8 887.675 75.424C886.547 76.024 885.239 76.324 883.751 76.324C882.071 76.324 880.535 75.892 879.143 75.028C877.775 74.164 876.683 72.952 875.867 71.392C875.075 69.808 874.679 67.996 874.679 65.956ZM890.375 66.028C890.375 64.804 890.135 63.76 889.655 62.896C889.175 62.008 888.527 61.336 887.711 60.88C886.895 60.4 886.019 60.16 885.083 60.16C884.147 60.16 883.283 60.388 882.491 60.844C881.699 61.3 881.051 61.972 880.547 62.86C880.067 63.724 879.827 64.756 879.827 65.956C879.827 67.156 880.067 68.212 880.547 69.124C881.051 70.012 881.699 70.696 882.491 71.176C883.307 71.656 884.171 71.896 885.083 71.896C886.019 71.896 886.895 71.668 887.711 71.212C888.527 70.732 889.175 70.06 889.655 69.196C890.135 68.308 890.375 67.252 890.375 66.028Z" fill="#B71405"/>
<path d="M452.407 31.2H485.367V39.648H473.271V76H464.439V39.648H452.407V31.2ZM490.937 76V31.2H499.769V76H490.937ZM508.702 31.2H525.406C529.673 31.2 533.3 32.6507 536.286 35.552C539.23 38.4533 540.702 42.016 540.702 46.24C540.702 50.464 539.23 54.0267 536.286 56.928C533.3 59.8293 529.673 61.28 525.406 61.28H517.534V76H508.702V31.2ZM517.534 53.024H525.406C527.284 53.024 528.841 52.384 530.078 51.104C531.316 49.7813 531.934 48.16 531.934 46.24C531.934 44.2773 531.316 42.656 530.078 41.376C528.841 40.096 527.284 39.456 525.406 39.456H517.534V53.024ZM584.476 70.176C579.953 74.656 574.449 76.896 567.964 76.896C561.479 76.896 555.975 74.656 551.452 70.176C546.972 65.6107 544.732 60.0853 544.732 53.6C544.732 47.072 546.972 41.568 551.452 37.088C555.975 32.5653 561.479 30.304 567.964 30.304C574.449 30.304 579.953 32.5653 584.476 37.088C588.999 41.568 591.26 47.072 591.26 53.6C591.26 60.128 588.999 65.6533 584.476 70.176ZM557.66 64.16C560.391 66.8907 563.825 68.256 567.964 68.256C572.103 68.256 575.537 66.8907 578.268 64.16C581.041 61.3867 582.428 57.8667 582.428 53.6C582.428 49.3333 581.041 45.8133 578.268 43.04C575.495 40.2667 572.06 38.88 567.964 38.88C563.868 38.88 560.433 40.2667 557.66 43.04C554.887 45.8133 553.5 49.3333 553.5 53.6C553.5 57.8667 554.887 61.3867 557.66 64.16Z" fill="black"/>
<path d="M457.369 698.832V710H455.129V702.736L452.137 710H450.441L447.433 702.736V710H445.193V698.832H447.737L451.289 707.136L454.841 698.832H457.369ZM459.167 705.536C459.167 704.64 459.343 703.845 459.695 703.152C460.058 702.459 460.543 701.925 461.151 701.552C461.77 701.179 462.458 700.992 463.215 700.992C463.877 700.992 464.453 701.125 464.943 701.392C465.445 701.659 465.845 701.995 466.143 702.4V701.136H468.399V710H466.143V708.704C465.855 709.12 465.455 709.467 464.943 709.744C464.442 710.011 463.861 710.144 463.199 710.144C462.453 710.144 461.77 709.952 461.151 709.568C460.543 709.184 460.058 708.645 459.695 707.952C459.343 707.248 459.167 706.443 459.167 705.536ZM466.143 705.568C466.143 705.024 466.037 704.56 465.823 704.176C465.61 703.781 465.322 703.483 464.959 703.28C464.597 703.067 464.207 702.96 463.791 702.96C463.375 702.96 462.991 703.061 462.639 703.264C462.287 703.467 461.999 703.765 461.775 704.16C461.562 704.544 461.455 705.003 461.455 705.536C461.455 706.069 461.562 706.539 461.775 706.944C461.999 707.339 462.287 707.643 462.639 707.856C463.002 708.069 463.386 708.176 463.791 708.176C464.207 708.176 464.597 708.075 464.959 707.872C465.322 707.659 465.61 707.36 465.823 706.976C466.037 706.581 466.143 706.112 466.143 705.568ZM475.643 710L473.819 707.248L472.203 710H469.803L472.699 705.552L469.771 701.136H472.299L474.107 703.872L475.739 701.136H478.139L475.227 705.552L478.171 710H475.643ZM482.992 700.4V698.336H486.848V710H484.544V700.4H482.992ZM491.813 706.72C491.898 707.189 492.09 707.552 492.389 707.808C492.698 708.053 493.109 708.176 493.621 708.176C494.282 708.176 494.762 707.904 495.061 707.36C495.36 706.805 495.509 705.877 495.509 704.576C495.264 704.917 494.917 705.184 494.469 705.376C494.032 705.568 493.557 705.664 493.045 705.664C492.362 705.664 491.744 705.525 491.189 705.248C490.645 704.96 490.213 704.539 489.893 703.984C489.573 703.419 489.413 702.736 489.413 701.936C489.413 700.752 489.765 699.813 490.469 699.12C491.173 698.416 492.133 698.064 493.349 698.064C494.864 698.064 495.93 698.549 496.549 699.52C497.178 700.491 497.493 701.952 497.493 703.904C497.493 705.291 497.37 706.427 497.125 707.312C496.89 708.197 496.48 708.869 495.893 709.328C495.317 709.787 494.528 710.016 493.525 710.016C492.736 710.016 492.064 709.867 491.509 709.568C490.954 709.259 490.528 708.859 490.229 708.368C489.941 707.867 489.776 707.317 489.733 706.72H491.813ZM493.509 703.84C494.064 703.84 494.501 703.669 494.821 703.328C495.141 702.987 495.301 702.528 495.301 701.952C495.301 701.323 495.13 700.837 494.789 700.496C494.458 700.144 494.005 699.968 493.429 699.968C492.853 699.968 492.394 700.149 492.053 700.512C491.722 700.864 491.557 701.333 491.557 701.92C491.557 702.485 491.717 702.949 492.037 703.312C492.368 703.664 492.858 703.84 493.509 703.84ZM501.989 706.72C502.074 707.189 502.266 707.552 502.565 707.808C502.874 708.053 503.285 708.176 503.797 708.176C504.458 708.176 504.938 707.904 505.237 707.36C505.535 706.805 505.685 705.877 505.685 704.576C505.439 704.917 505.093 705.184 504.645 705.376C504.207 705.568 503.733 705.664 503.221 705.664C502.538 705.664 501.919 705.525 501.365 705.248C500.821 704.96 500.389 704.539 500.069 703.984C499.749 703.419 499.589 702.736 499.589 701.936C499.589 700.752 499.941 699.813 500.645 699.12C501.349 698.416 502.309 698.064 503.525 698.064C505.039 698.064 506.106 698.549 506.725 699.52C507.354 700.491 507.669 701.952 507.669 703.904C507.669 705.291 507.546 706.427 507.301 707.312C507.066 708.197 506.655 708.869 506.069 709.328C505.493 709.787 504.703 710.016 503.701 710.016C502.911 710.016 502.239 709.867 501.685 709.568C501.13 709.259 500.703 708.859 500.405 708.368C500.117 707.867 499.951 707.317 499.909 706.72H501.989ZM503.685 703.84C504.239 703.84 504.677 703.669 504.997 703.328C505.317 702.987 505.477 702.528 505.477 701.952C505.477 701.323 505.306 700.837 504.965 700.496C504.634 700.144 504.181 699.968 503.605 699.968C503.029 699.968 502.57 700.149 502.229 700.512C501.898 700.864 501.733 701.333 501.733 701.92C501.733 702.485 501.893 702.949 502.213 703.312C502.543 703.664 503.034 703.84 503.685 703.84ZM520.105 710L516.041 705.024V710H513.801V698.832H516.041V703.84L520.105 698.832H522.809L518.201 704.368L522.937 710H520.105ZM535.578 701.008C536.666 701.008 537.541 701.344 538.202 702.016C538.874 702.677 539.21 703.605 539.21 704.8V710H536.97V705.104C536.97 704.411 536.794 703.883 536.442 703.52C536.09 703.147 535.61 702.96 535.002 702.96C534.394 702.96 533.909 703.147 533.546 703.52C533.194 703.883 533.018 704.411 533.018 705.104V710H530.778V705.104C530.778 704.411 530.602 703.883 530.25 703.52C529.898 703.147 529.418 702.96 528.81 702.96C528.192 702.96 527.701 703.147 527.338 703.52C526.986 703.883 526.81 704.411 526.81 705.104V710H524.57V701.136H526.81V702.208C527.098 701.835 527.466 701.541 527.914 701.328C528.373 701.115 528.874 701.008 529.418 701.008C530.112 701.008 530.73 701.157 531.274 701.456C531.818 701.744 532.24 702.16 532.538 702.704C532.826 702.192 533.242 701.781 533.786 701.472C534.341 701.163 534.938 701.008 535.578 701.008ZM547.496 694.848L543.176 712.896H540.984L545.304 694.848H547.496ZM554.429 701.008C555.101 701.008 555.698 701.157 556.221 701.456C556.744 701.744 557.149 702.176 557.437 702.752C557.736 703.317 557.885 704 557.885 704.8V710H555.645V705.104C555.645 704.4 555.469 703.861 555.117 703.488C554.765 703.104 554.285 702.912 553.677 702.912C553.058 702.912 552.568 703.104 552.205 703.488C551.853 703.861 551.677 704.4 551.677 705.104V710H549.437V698.16H551.677V702.24C551.965 701.856 552.349 701.557 552.829 701.344C553.309 701.12 553.842 701.008 554.429 701.008Z" fill="black"/>
<circle cx="500.5" cy="639.5" r="27.5" fill="#A11205"/>
<path d="M500.498 622C490.849 622 483 629.851 483 639.5C483 649.149 490.849 657 500.498 657C510.147 657 517.997 649.149 517.997 639.5C517.997 629.851 510.147 622 500.498 622ZM500.498 654.354C492.308 654.354 485.645 647.691 485.645 639.5C485.645 631.31 492.308 624.646 500.498 624.646C508.687 624.646 515.351 631.31 515.351 639.5C515.351 647.691 508.687 654.354 500.498 654.354Z" fill="#FEFEFE"/>
<path d="M498.171 639.5C498.171 640.797 499.221 641.846 500.515 641.846C501.812 641.846 502.859 640.797 502.859 639.5C502.859 638.206 501.812 637.154 500.515 637.154C500.5 637.154 500.482 637.158 500.465 637.158L491.82 630.713L498.183 639.248C498.176 639.333 498.171 639.415 498.171 639.5Z" fill="#FEFEFE"/>
<path d="M503.687 644.909H493.586V650.468H507.415V644.909H503.687ZM496.111 649.264H494.788V646.11H496.111V649.264ZM498.635 649.264H497.313V646.11H498.635V649.264ZM501.162 649.264H499.84V646.11H501.162V649.264ZM503.687 649.264H502.364V646.11H503.687V649.264ZM506.211 646.11V649.264H504.889V646.11H506.211Z" fill="#FEFEFE"/>
<path d="M650.579 702.288C650.579 702.885 650.435 703.445 650.147 703.968C649.87 704.491 649.427 704.912 648.819 705.232C648.222 705.552 647.465 705.712 646.547 705.712H644.675V710H642.435V698.832H646.547C647.411 698.832 648.147 698.981 648.755 699.28C649.363 699.579 649.817 699.989 650.115 700.512C650.425 701.035 650.579 701.627 650.579 702.288ZM646.451 703.904C647.07 703.904 647.529 703.765 647.827 703.488C648.126 703.2 648.275 702.8 648.275 702.288C648.275 701.2 647.667 700.656 646.451 700.656H644.675V703.904H646.451ZM660.698 701.136V710H658.442V708.88C658.154 709.264 657.775 709.568 657.306 709.792C656.847 710.005 656.346 710.112 655.802 710.112C655.108 710.112 654.495 709.968 653.962 709.68C653.428 709.381 653.007 708.949 652.698 708.384C652.399 707.808 652.25 707.125 652.25 706.336V701.136H654.49V706.016C654.49 706.72 654.666 707.264 655.018 707.648C655.37 708.021 655.85 708.208 656.458 708.208C657.076 708.208 657.562 708.021 657.914 707.648C658.266 707.264 658.442 706.72 658.442 706.016V701.136H660.698ZM664.204 700.08C663.809 700.08 663.478 699.957 663.212 699.712C662.956 699.456 662.828 699.141 662.828 698.768C662.828 698.395 662.956 698.085 663.212 697.84C663.478 697.584 663.809 697.456 664.204 697.456C664.598 697.456 664.924 697.584 665.18 697.84C665.446 698.085 665.58 698.395 665.58 698.768C665.58 699.141 665.446 699.456 665.18 699.712C664.924 699.957 664.598 700.08 664.204 700.08ZM665.308 701.136V710H663.068V701.136H665.308ZM671.073 710.144C670.348 710.144 669.697 710.016 669.121 709.76C668.545 709.493 668.086 709.136 667.745 708.688C667.414 708.24 667.233 707.744 667.201 707.2H669.457C669.5 707.541 669.665 707.824 669.953 708.048C670.252 708.272 670.62 708.384 671.057 708.384C671.484 708.384 671.814 708.299 672.049 708.128C672.294 707.957 672.417 707.739 672.417 707.472C672.417 707.184 672.268 706.971 671.969 706.832C671.681 706.683 671.217 706.523 670.577 706.352C669.916 706.192 669.372 706.027 668.945 705.856C668.529 705.685 668.166 705.424 667.857 705.072C667.558 704.72 667.409 704.245 667.409 703.648C667.409 703.157 667.548 702.709 667.825 702.304C668.113 701.899 668.518 701.579 669.041 701.344C669.574 701.109 670.198 700.992 670.913 700.992C671.969 700.992 672.812 701.259 673.441 701.792C674.07 702.315 674.417 703.024 674.481 703.92H672.337C672.305 703.568 672.156 703.291 671.889 703.088C671.633 702.875 671.286 702.768 670.849 702.768C670.444 702.768 670.129 702.843 669.905 702.992C669.692 703.141 669.585 703.349 669.585 703.616C669.585 703.915 669.734 704.144 670.033 704.304C670.332 704.453 670.796 704.608 671.425 704.768C672.065 704.928 672.593 705.093 673.009 705.264C673.425 705.435 673.782 705.701 674.081 706.064C674.39 706.416 674.55 706.885 674.561 707.472C674.561 707.984 674.417 708.443 674.129 708.848C673.852 709.253 673.446 709.573 672.913 709.808C672.39 710.032 671.777 710.144 671.073 710.144ZM679.952 710.144C679.226 710.144 678.576 710.016 678 709.76C677.424 709.493 676.965 709.136 676.624 708.688C676.293 708.24 676.112 707.744 676.08 707.2H678.336C678.378 707.541 678.544 707.824 678.832 708.048C679.13 708.272 679.498 708.384 679.936 708.384C680.362 708.384 680.693 708.299 680.928 708.128C681.173 707.957 681.296 707.739 681.296 707.472C681.296 707.184 681.146 706.971 680.848 706.832C680.56 706.683 680.096 706.523 679.456 706.352C678.794 706.192 678.25 706.027 677.824 705.856C677.408 705.685 677.045 705.424 676.736 705.072C676.437 704.72 676.288 704.245 676.288 703.648C676.288 703.157 676.426 702.709 676.704 702.304C676.992 701.899 677.397 701.579 677.92 701.344C678.453 701.109 679.077 700.992 679.792 700.992C680.848 700.992 681.69 701.259 682.32 701.792C682.949 702.315 683.296 703.024 683.36 703.92H681.216C681.184 703.568 681.034 703.291 680.768 703.088C680.512 702.875 680.165 702.768 679.728 702.768C679.322 702.768 679.008 702.843 678.784 702.992C678.57 703.141 678.464 703.349 678.464 703.616C678.464 703.915 678.613 704.144 678.912 704.304C679.21 704.453 679.674 704.608 680.304 704.768C680.944 704.928 681.472 705.093 681.888 705.264C682.304 705.435 682.661 705.701 682.96 706.064C683.269 706.416 683.429 706.885 683.44 707.472C683.44 707.984 683.296 708.443 683.008 708.848C682.73 709.253 682.325 709.573 681.792 709.808C681.269 710.032 680.656 710.144 679.952 710.144ZM684.862 705.536C684.862 704.64 685.038 703.845 685.39 703.152C685.753 702.459 686.238 701.925 686.846 701.552C687.465 701.179 688.153 700.992 688.91 700.992C689.572 700.992 690.148 701.125 690.638 701.392C691.14 701.659 691.54 701.995 691.838 702.4V701.136H694.094V710H691.838V708.704C691.55 709.12 691.15 709.467 690.638 709.744C690.137 710.011 689.556 710.144 688.894 710.144C688.148 710.144 687.465 709.952 686.846 709.568C686.238 709.184 685.753 708.645 685.39 707.952C685.038 707.248 684.862 706.443 684.862 705.536ZM691.838 705.568C691.838 705.024 691.732 704.56 691.518 704.176C691.305 703.781 691.017 703.483 690.654 703.28C690.292 703.067 689.902 702.96 689.486 702.96C689.07 702.96 688.686 703.061 688.334 703.264C687.982 703.467 687.694 703.765 687.47 704.16C687.257 704.544 687.15 705.003 687.15 705.536C687.15 706.069 687.257 706.539 687.47 706.944C687.694 707.339 687.982 707.643 688.334 707.856C688.697 708.069 689.081 708.176 689.486 708.176C689.902 708.176 690.292 708.075 690.654 707.872C691.017 707.659 691.305 707.36 691.518 706.976C691.732 706.581 691.838 706.112 691.838 705.568ZM701.354 701.008C702.41 701.008 703.263 701.344 703.914 702.016C704.565 702.677 704.89 703.605 704.89 704.8V710H702.65V705.104C702.65 704.4 702.474 703.861 702.122 703.488C701.77 703.104 701.29 702.912 700.682 702.912C700.063 702.912 699.573 703.104 699.21 703.488C698.858 703.861 698.682 704.4 698.682 705.104V710H696.442V701.136H698.682V702.24C698.981 701.856 699.359 701.557 699.818 701.344C700.287 701.12 700.799 701.008 701.354 701.008ZM706.604 705.568C706.604 704.651 706.791 703.851 707.164 703.168C707.538 702.475 708.055 701.941 708.716 701.568C709.378 701.184 710.135 700.992 710.988 700.992C712.087 700.992 712.994 701.269 713.708 701.824C714.434 702.368 714.919 703.136 715.164 704.128H712.748C712.62 703.744 712.402 703.445 712.092 703.232C711.794 703.008 711.42 702.896 710.972 702.896C710.332 702.896 709.826 703.131 709.452 703.6C709.079 704.059 708.892 704.715 708.892 705.568C708.892 706.411 709.079 707.067 709.452 707.536C709.826 707.995 710.332 708.224 710.972 708.224C711.879 708.224 712.471 707.819 712.748 707.008H715.164C714.919 707.968 714.434 708.731 713.708 709.296C712.983 709.861 712.076 710.144 710.988 710.144C710.135 710.144 709.378 709.957 708.716 709.584C708.055 709.2 707.538 708.667 707.164 707.984C706.791 707.291 706.604 706.485 706.604 705.568ZM725.205 705.376C725.205 705.696 725.184 705.984 725.141 706.24H718.661C718.715 706.88 718.939 707.381 719.333 707.744C719.728 708.107 720.213 708.288 720.789 708.288C721.621 708.288 722.213 707.931 722.565 707.216H724.981C724.725 708.069 724.235 708.773 723.509 709.328C722.784 709.872 721.893 710.144 720.837 710.144C719.984 710.144 719.216 709.957 718.533 709.584C717.861 709.2 717.333 708.661 716.949 707.968C716.576 707.275 716.389 706.475 716.389 705.568C716.389 704.651 716.576 703.845 716.949 703.152C717.323 702.459 717.845 701.925 718.517 701.552C719.189 701.179 719.963 700.992 720.837 700.992C721.68 700.992 722.432 701.173 723.093 701.536C723.765 701.899 724.283 702.416 724.645 703.088C725.019 703.749 725.205 704.512 725.205 705.376ZM722.885 704.736C722.875 704.16 722.667 703.701 722.261 703.36C721.856 703.008 721.36 702.832 720.773 702.832C720.219 702.832 719.749 703.003 719.365 703.344C718.992 703.675 718.763 704.139 718.677 704.736H722.885ZM730.445 700.4V698.336H734.301V710H731.997V700.4H730.445ZM737.378 707.472C738.402 706.619 739.218 705.909 739.826 705.344C740.434 704.768 740.94 704.171 741.346 703.552C741.751 702.933 741.954 702.325 741.954 701.728C741.954 701.184 741.826 700.757 741.57 700.448C741.314 700.139 740.919 699.984 740.386 699.984C739.852 699.984 739.442 700.165 739.154 700.528C738.866 700.88 738.716 701.365 738.706 701.984H736.53C736.572 700.704 736.951 699.733 737.666 699.072C738.391 698.411 739.308 698.08 740.418 698.08C741.634 698.08 742.567 698.405 743.218 699.056C743.868 699.696 744.194 700.544 744.194 701.6C744.194 702.432 743.97 703.227 743.522 703.984C743.074 704.741 742.562 705.403 741.986 705.968C741.41 706.523 740.658 707.195 739.73 707.984H744.45V709.84H736.546V708.176L737.378 707.472ZM746.021 704.016C746.021 702.171 746.352 700.725 747.013 699.68C747.685 698.635 748.794 698.112 750.341 698.112C751.888 698.112 752.992 698.635 753.653 699.68C754.325 700.725 754.661 702.171 754.661 704.016C754.661 705.872 754.325 707.328 753.653 708.384C752.992 709.44 751.888 709.968 750.341 709.968C748.794 709.968 747.685 709.44 747.013 708.384C746.352 707.328 746.021 705.872 746.021 704.016ZM752.453 704.016C752.453 703.227 752.4 702.565 752.293 702.032C752.197 701.488 751.994 701.045 751.685 700.704C751.386 700.363 750.938 700.192 750.341 700.192C749.744 700.192 749.29 700.363 748.981 700.704C748.682 701.045 748.48 701.488 748.373 702.032C748.277 702.565 748.229 703.227 748.229 704.016C748.229 704.827 748.277 705.509 748.373 706.064C748.469 706.608 748.672 707.051 748.981 707.392C749.29 707.723 749.744 707.888 750.341 707.888C750.938 707.888 751.392 707.723 751.701 707.392C752.01 707.051 752.213 706.608 752.309 706.064C752.405 705.509 752.453 704.827 752.453 704.016ZM760.209 704.4C760.209 703.301 760.455 702.32 760.945 701.456C761.447 700.581 762.124 699.904 762.977 699.424C763.841 698.933 764.807 698.688 765.873 698.688C767.121 698.688 768.215 699.008 769.153 699.648C770.092 700.288 770.748 701.173 771.121 702.304H768.545C768.289 701.771 767.927 701.371 767.457 701.104C766.999 700.837 766.465 700.704 765.857 700.704C765.207 700.704 764.625 700.859 764.113 701.168C763.612 701.467 763.217 701.893 762.929 702.448C762.652 703.003 762.513 703.653 762.513 704.4C762.513 705.136 762.652 705.787 762.929 706.352C763.217 706.907 763.612 707.339 764.113 707.648C764.625 707.947 765.207 708.096 765.857 708.096C766.465 708.096 766.999 707.963 767.457 707.696C767.927 707.419 768.289 707.013 768.545 706.48H771.121C770.748 707.621 770.092 708.512 769.153 709.152C768.225 709.781 767.132 710.096 765.873 710.096C764.807 710.096 763.841 709.856 762.977 709.376C762.124 708.885 761.447 708.208 760.945 707.344C760.455 706.48 760.209 705.499 760.209 704.4ZM778.187 701.008C778.859 701.008 779.456 701.157 779.979 701.456C780.501 701.744 780.907 702.176 781.195 702.752C781.493 703.317 781.643 704 781.643 704.8V710H779.403V705.104C779.403 704.4 779.227 703.861 778.875 703.488C778.523 703.104 778.043 702.912 777.435 702.912C776.816 702.912 776.325 703.104 775.963 703.488C775.611 703.861 775.435 704.4 775.435 705.104V710H773.195V698.16H775.435V702.24C775.723 701.856 776.107 701.557 776.587 701.344C777.067 701.12 777.6 701.008 778.187 701.008Z" fill="black"/>
<circle cx="712.5" cy="639.5" r="27.5" fill="#A11205"/>
<path d="M727.754 633.954H725.477L725.495 633.909L725.25 633.427C724.495 631.942 721.869 627.025 719.786 626.11L719.539 626H705.462L705.216 626.11C703.129 627.025 700.506 631.942 699.75 633.427L699.505 633.909L699.525 633.954H697.248C696.561 633.954 696 634.417 696 634.99V636.088C696 636.66 696.561 637.124 697.248 637.124H697.972C697.897 637.473 697.848 637.833 697.848 638.211V643.143C697.848 644.624 698.465 645.927 699.405 646.732V650.809C699.405 651.469 699.964 652 700.651 652H703.46C704.147 652 704.706 651.469 704.706 650.809V647.579H720.294V650.809C720.294 651.469 720.853 652 721.542 652H724.347C725.04 652 725.595 651.469 725.595 650.809V646.732C726.538 645.927 727.154 644.624 727.154 643.143V638.211C727.154 637.833 727.105 637.473 727.028 637.124H727.754C728.443 637.124 729 636.66 729 636.09V634.99C729 634.417 728.443 633.954 727.754 633.954ZM706.069 628.384H718.929C719.782 628.999 721.394 631.448 722.642 633.772H702.363C703.608 631.448 705.219 628.999 706.069 628.384V628.384Z" fill="#FEFEFE"/>
<path d="M163.155 707.872H158.707L157.971 710H155.619L159.635 698.816H162.243L166.259 710H163.891L163.155 707.872ZM162.547 706.08L160.931 701.408L159.315 706.08H162.547ZM176.288 701.136V710H174.032V708.88C173.744 709.264 173.365 709.568 172.896 709.792C172.437 710.005 171.936 710.112 171.392 710.112C170.699 710.112 170.085 709.968 169.552 709.68C169.019 709.381 168.597 708.949 168.288 708.384C167.989 707.808 167.84 707.125 167.84 706.336V701.136H170.08V706.016C170.08 706.72 170.256 707.264 170.608 707.648C170.96 708.021 171.44 708.208 172.048 708.208C172.667 708.208 173.152 708.021 173.504 707.648C173.856 707.264 174.032 706.72 174.032 706.016V701.136H176.288ZM181.266 702.976V707.264C181.266 707.563 181.335 707.781 181.474 707.92C181.623 708.048 181.869 708.112 182.21 708.112H183.25V710H181.842C179.954 710 179.01 709.083 179.01 707.248V702.976H177.954V701.136H179.01V698.944H181.266V701.136H183.25V702.976H181.266ZM188.957 710.144C188.104 710.144 187.336 709.957 186.653 709.584C185.971 709.2 185.432 708.661 185.037 707.968C184.653 707.275 184.461 706.475 184.461 705.568C184.461 704.661 184.659 703.861 185.053 703.168C185.459 702.475 186.008 701.941 186.701 701.568C187.395 701.184 188.168 700.992 189.021 700.992C189.875 700.992 190.648 701.184 191.341 701.568C192.035 701.941 192.579 702.475 192.973 703.168C193.379 703.861 193.581 704.661 193.581 705.568C193.581 706.475 193.373 707.275 192.957 707.968C192.552 708.661 191.997 709.2 191.293 709.584C190.6 709.957 189.821 710.144 188.957 710.144ZM188.957 708.192C189.363 708.192 189.741 708.096 190.093 707.904C190.456 707.701 190.744 707.403 190.957 707.008C191.171 706.613 191.277 706.133 191.277 705.568C191.277 704.725 191.053 704.08 190.605 703.632C190.168 703.173 189.629 702.944 188.989 702.944C188.349 702.944 187.811 703.173 187.373 703.632C186.947 704.08 186.733 704.725 186.733 705.568C186.733 706.411 186.941 707.061 187.357 707.52C187.784 707.968 188.317 708.192 188.957 708.192ZM206.392 701.008C207.48 701.008 208.355 701.344 209.016 702.016C209.688 702.677 210.024 703.605 210.024 704.8V710H207.784V705.104C207.784 704.411 207.608 703.883 207.256 703.52C206.904 703.147 206.424 702.96 205.816 702.96C205.208 702.96 204.723 703.147 204.36 703.52C204.008 703.883 203.832 704.411 203.832 705.104V710H201.592V705.104C201.592 704.411 201.416 703.883 201.064 703.52C200.712 703.147 200.232 702.96 199.624 702.96C199.006 702.96 198.515 703.147 198.152 703.52C197.8 703.883 197.624 704.411 197.624 705.104V710H195.384V701.136H197.624V702.208C197.912 701.835 198.28 701.541 198.728 701.328C199.187 701.115 199.688 701.008 200.232 701.008C200.926 701.008 201.544 701.157 202.088 701.456C202.632 701.744 203.054 702.16 203.352 702.704C203.64 702.192 204.056 701.781 204.6 701.472C205.155 701.163 205.752 701.008 206.392 701.008ZM211.734 705.536C211.734 704.64 211.91 703.845 212.262 703.152C212.625 702.459 213.11 701.925 213.718 701.552C214.337 701.179 215.025 700.992 215.782 700.992C216.443 700.992 217.019 701.125 217.51 701.392C218.011 701.659 218.411 701.995 218.71 702.4V701.136H220.966V710H218.71V708.704C218.422 709.12 218.022 709.467 217.51 709.744C217.009 710.011 216.427 710.144 215.766 710.144C215.019 710.144 214.337 709.952 213.718 709.568C213.11 709.184 212.625 708.645 212.262 707.952C211.91 707.248 211.734 706.443 211.734 705.536ZM218.71 705.568C218.71 705.024 218.603 704.56 218.39 704.176C218.177 703.781 217.889 703.483 217.526 703.28C217.163 703.067 216.774 702.96 216.358 702.96C215.942 702.96 215.558 703.061 215.206 703.264C214.854 703.467 214.566 703.765 214.342 704.16C214.129 704.544 214.022 705.003 214.022 705.536C214.022 706.069 214.129 706.539 214.342 706.944C214.566 707.339 214.854 707.643 215.206 707.856C215.569 708.069 215.953 708.176 216.358 708.176C216.774 708.176 217.163 708.075 217.526 707.872C217.889 707.659 218.177 707.36 218.39 706.976C218.603 706.581 218.71 706.112 218.71 705.568ZM225.922 702.976V707.264C225.922 707.563 225.991 707.781 226.13 707.92C226.279 708.048 226.524 708.112 226.866 708.112H227.906V710H226.498C224.61 710 223.666 709.083 223.666 707.248V702.976H222.61V701.136H223.666V698.944H225.922V701.136H227.906V702.976H225.922ZM230.813 700.08C230.418 700.08 230.087 699.957 229.821 699.712C229.565 699.456 229.437 699.141 229.437 698.768C229.437 698.395 229.565 698.085 229.821 697.84C230.087 697.584 230.418 697.456 230.813 697.456C231.207 697.456 231.533 697.584 231.789 697.84C232.055 698.085 232.189 698.395 232.189 698.768C232.189 699.141 232.055 699.456 231.789 699.712C231.533 699.957 231.207 700.08 230.813 700.08ZM231.917 701.136V710H229.677V701.136H231.917ZM233.714 705.552C233.714 704.667 233.895 703.883 234.258 703.2C234.631 702.507 235.133 701.968 235.762 701.584C236.391 701.2 237.085 701.008 237.842 701.008C238.471 701.008 239.026 701.131 239.506 701.376C239.997 701.611 240.391 701.915 240.69 702.288V701.136H242.946V714.224H240.69V708.784C240.391 709.168 239.991 709.488 239.49 709.744C238.989 710 238.423 710.128 237.794 710.128C237.047 710.128 236.359 709.936 235.73 709.552C235.111 709.157 234.621 708.613 234.258 707.92C233.895 707.227 233.714 706.437 233.714 705.552ZM240.69 705.568C240.69 705.024 240.578 704.555 240.354 704.16C240.13 703.765 239.837 703.467 239.474 703.264C239.122 703.061 238.743 702.96 238.338 702.96C237.943 702.96 237.565 703.061 237.202 703.264C236.85 703.467 236.562 703.765 236.338 704.16C236.114 704.544 236.002 705.008 236.002 705.552C236.002 706.096 236.114 706.571 236.338 706.976C236.562 707.371 236.85 707.669 237.202 707.872C237.565 708.075 237.943 708.176 238.338 708.176C238.743 708.176 239.122 708.075 239.474 707.872C239.837 707.669 240.13 707.371 240.354 706.976C240.578 706.581 240.69 706.112 240.69 705.568ZM253.662 701.136V710H251.406V708.88C251.118 709.264 250.739 709.568 250.27 709.792C249.811 710.005 249.31 710.112 248.766 710.112C248.072 710.112 247.459 709.968 246.926 709.68C246.392 709.381 245.971 708.949 245.662 708.384C245.363 707.808 245.214 707.125 245.214 706.336V701.136H247.454V706.016C247.454 706.72 247.63 707.264 247.982 707.648C248.334 708.021 248.814 708.208 249.422 708.208C250.04 708.208 250.526 708.021 250.878 707.648C251.23 707.264 251.406 706.72 251.406 706.016V701.136H253.662ZM264.272 705.376C264.272 705.696 264.25 705.984 264.208 706.24H257.728C257.781 706.88 258.005 707.381 258.4 707.744C258.794 708.107 259.28 708.288 259.856 708.288C260.688 708.288 261.28 707.931 261.632 707.216H264.048C263.792 708.069 263.301 708.773 262.576 709.328C261.85 709.872 260.96 710.144 259.904 710.144C259.05 710.144 258.282 709.957 257.6 709.584C256.928 709.2 256.4 708.661 256.016 707.968C255.642 707.275 255.456 706.475 255.456 705.568C255.456 704.651 255.642 703.845 256.016 703.152C256.389 702.459 256.912 701.925 257.584 701.552C258.256 701.179 259.029 700.992 259.904 700.992C260.746 700.992 261.498 701.173 262.16 701.536C262.832 701.899 263.349 702.416 263.712 703.088C264.085 703.749 264.272 704.512 264.272 705.376ZM261.952 704.736C261.941 704.16 261.733 703.701 261.328 703.36C260.922 703.008 260.426 702.832 259.84 702.832C259.285 702.832 258.816 703.003 258.432 703.344C258.058 703.675 257.829 704.139 257.744 704.736H261.952ZM275.831 701.248C275.725 700.8 275.538 700.464 275.271 700.24C275.015 700.016 274.642 699.904 274.151 699.904C273.415 699.904 272.871 700.203 272.519 700.8C272.178 701.387 272.002 702.347 271.991 703.68C272.247 703.253 272.621 702.923 273.111 702.688C273.602 702.443 274.135 702.32 274.711 702.32C275.405 702.32 276.018 702.469 276.551 702.768C277.085 703.067 277.501 703.504 277.799 704.08C278.098 704.645 278.247 705.328 278.247 706.128C278.247 706.885 278.093 707.563 277.783 708.16C277.485 708.747 277.042 709.205 276.455 709.536C275.869 709.867 275.17 710.032 274.359 710.032C273.25 710.032 272.375 709.787 271.735 709.296C271.106 708.805 270.663 708.123 270.407 707.248C270.162 706.363 270.039 705.275 270.039 703.984C270.039 702.032 270.375 700.56 271.047 699.568C271.719 698.565 272.781 698.064 274.231 698.064C275.351 698.064 276.221 698.368 276.839 698.976C277.458 699.584 277.815 700.341 277.911 701.248H275.831ZM274.199 704.16C273.634 704.16 273.159 704.325 272.775 704.656C272.391 704.987 272.199 705.467 272.199 706.096C272.199 706.725 272.375 707.221 272.727 707.584C273.09 707.947 273.597 708.128 274.247 708.128C274.823 708.128 275.277 707.952 275.607 707.6C275.949 707.248 276.119 706.773 276.119 706.176C276.119 705.557 275.954 705.067 275.623 704.704C275.303 704.341 274.829 704.16 274.199 704.16ZM290.166 710L287.702 705.648H286.646V710H284.406V698.832H288.598C289.462 698.832 290.198 698.987 290.806 699.296C291.414 699.595 291.868 700.005 292.166 700.528C292.476 701.04 292.63 701.616 292.63 702.256C292.63 702.992 292.417 703.659 291.99 704.256C291.564 704.843 290.929 705.248 290.086 705.472L292.758 710H290.166ZM286.646 703.968H288.518C289.126 703.968 289.58 703.824 289.878 703.536C290.177 703.237 290.326 702.827 290.326 702.304C290.326 701.792 290.177 701.397 289.878 701.12C289.58 700.832 289.126 700.688 288.518 700.688H286.646V703.968ZM294.24 705.536C294.24 704.64 294.416 703.845 294.768 703.152C295.131 702.459 295.616 701.925 296.224 701.552C296.843 701.179 297.531 700.992 298.288 700.992C298.95 700.992 299.526 701.125 300.016 701.392C300.518 701.659 300.918 701.995 301.216 702.4V701.136H303.472V710H301.216V708.704C300.928 709.12 300.528 709.467 300.016 709.744C299.515 710.011 298.934 710.144 298.272 710.144C297.526 710.144 296.843 709.952 296.224 709.568C295.616 709.184 295.131 708.645 294.768 707.952C294.416 707.248 294.24 706.443 294.24 705.536ZM301.216 705.568C301.216 705.024 301.11 704.56 300.896 704.176C300.683 703.781 300.395 703.483 300.032 703.28C299.67 703.067 299.28 702.96 298.864 702.96C298.448 702.96 298.064 703.061 297.712 703.264C297.36 703.467 297.072 703.765 296.848 704.16C296.635 704.544 296.528 705.003 296.528 705.536C296.528 706.069 296.635 706.539 296.848 706.944C297.072 707.339 297.36 707.643 297.712 707.856C298.075 708.069 298.459 708.176 298.864 708.176C299.28 708.176 299.67 708.075 300.032 707.872C300.395 707.659 300.683 707.36 300.896 706.976C301.11 706.581 301.216 706.112 301.216 705.568ZM308.06 702.416C308.348 702.011 308.743 701.675 309.244 701.408C309.756 701.131 310.337 700.992 310.988 700.992C311.745 700.992 312.428 701.179 313.036 701.552C313.655 701.925 314.14 702.459 314.492 703.152C314.855 703.835 315.036 704.629 315.036 705.536C315.036 706.443 314.855 707.248 314.492 707.952C314.14 708.645 313.655 709.184 313.036 709.568C312.428 709.952 311.745 710.144 310.988 710.144C310.337 710.144 309.761 710.011 309.26 709.744C308.769 709.477 308.369 709.141 308.06 708.736V714.224H305.82V701.136H308.06V702.416ZM312.748 705.536C312.748 705.003 312.636 704.544 312.412 704.16C312.199 703.765 311.911 703.467 311.548 703.264C311.196 703.061 310.812 702.96 310.396 702.96C309.991 702.96 309.607 703.067 309.244 703.28C308.892 703.483 308.604 703.781 308.38 704.176C308.167 704.571 308.06 705.035 308.06 705.568C308.06 706.101 308.167 706.565 308.38 706.96C308.604 707.355 308.892 707.659 309.244 707.872C309.607 708.075 309.991 708.176 310.396 708.176C310.812 708.176 311.196 708.069 311.548 707.856C311.911 707.643 312.199 707.339 312.412 706.944C312.636 706.549 312.748 706.08 312.748 705.536ZM319.064 702.416C319.352 702.011 319.746 701.675 320.248 701.408C320.76 701.131 321.341 700.992 321.992 700.992C322.749 700.992 323.432 701.179 324.04 701.552C324.658 701.925 325.144 702.459 325.496 703.152C325.858 703.835 326.04 704.629 326.04 705.536C326.04 706.443 325.858 707.248 325.496 707.952C325.144 708.645 324.658 709.184 324.04 709.568C323.432 709.952 322.749 710.144 321.992 710.144C321.341 710.144 320.765 710.011 320.264 709.744C319.773 709.477 319.373 709.141 319.064 708.736V714.224H316.824V701.136H319.064V702.416ZM323.752 705.536C323.752 705.003 323.64 704.544 323.416 704.16C323.202 703.765 322.914 703.467 322.552 703.264C322.2 703.061 321.816 702.96 321.4 702.96C320.994 702.96 320.61 703.067 320.248 703.28C319.896 703.483 319.608 703.781 319.384 704.176C319.17 704.571 319.064 705.035 319.064 705.568C319.064 706.101 319.17 706.565 319.384 706.96C319.608 707.355 319.896 707.659 320.248 707.872C320.61 708.075 320.994 708.176 321.4 708.176C321.816 708.176 322.2 708.069 322.552 707.856C322.914 707.643 323.202 707.339 323.416 706.944C323.64 706.549 323.752 706.08 323.752 705.536ZM331.763 710.144C330.91 710.144 330.142 709.957 329.459 709.584C328.777 709.2 328.238 708.661 327.843 707.968C327.459 707.275 327.267 706.475 327.267 705.568C327.267 704.661 327.465 703.861 327.859 703.168C328.265 702.475 328.814 701.941 329.507 701.568C330.201 701.184 330.974 700.992 331.827 700.992C332.681 700.992 333.454 701.184 334.147 701.568C334.841 701.941 335.385 702.475 335.779 703.168C336.185 703.861 336.387 704.661 336.387 705.568C336.387 706.475 336.179 707.275 335.763 707.968C335.358 708.661 334.803 709.2 334.099 709.584C333.406 709.957 332.627 710.144 331.763 710.144ZM331.763 708.192C332.169 708.192 332.547 708.096 332.899 707.904C333.262 707.701 333.55 707.403 333.763 707.008C333.977 706.613 334.083 706.133 334.083 705.568C334.083 704.725 333.859 704.08 333.411 703.632C332.974 703.173 332.435 702.944 331.795 702.944C331.155 702.944 330.617 703.173 330.179 703.632C329.753 704.08 329.539 704.725 329.539 705.568C329.539 706.411 329.747 707.061 330.163 707.52C330.59 707.968 331.123 708.192 331.763 708.192ZM340.431 702.512C340.719 702.043 341.092 701.675 341.551 701.408C342.02 701.141 342.553 701.008 343.151 701.008V703.36H342.559C341.855 703.36 341.321 703.525 340.959 703.856C340.607 704.187 340.431 704.763 340.431 705.584V710H338.191V701.136H340.431V702.512ZM347.427 702.976V707.264C347.427 707.563 347.497 707.781 347.635 707.92C347.785 708.048 348.03 708.112 348.371 708.112H349.411V710H348.003C346.115 710 345.171 709.083 345.171 707.248V702.976H344.115V701.136H345.171V698.944H347.427V701.136H349.411V702.976H347.427ZM354.574 710.144C353.849 710.144 353.198 710.016 352.622 709.76C352.046 709.493 351.588 709.136 351.246 708.688C350.916 708.24 350.734 707.744 350.702 707.2H352.958C353.001 707.541 353.166 707.824 353.454 708.048C353.753 708.272 354.121 708.384 354.558 708.384C354.985 708.384 355.316 708.299 355.55 708.128C355.796 707.957 355.918 707.739 355.918 707.472C355.918 707.184 355.769 706.971 355.47 706.832C355.182 706.683 354.718 706.523 354.078 706.352C353.417 706.192 352.873 706.027 352.446 705.856C352.03 705.685 351.668 705.424 351.358 705.072C351.06 704.72 350.91 704.245 350.91 703.648C350.91 703.157 351.049 702.709 351.326 702.304C351.614 701.899 352.02 701.579 352.542 701.344C353.076 701.109 353.7 700.992 354.414 700.992C355.47 700.992 356.313 701.259 356.942 701.792C357.572 702.315 357.918 703.024 357.982 703.92H355.838C355.806 703.568 355.657 703.291 355.39 703.088C355.134 702.875 354.788 702.768 354.35 702.768C353.945 702.768 353.63 702.843 353.406 702.992C353.193 703.141 353.086 703.349 353.086 703.616C353.086 703.915 353.236 704.144 353.534 704.304C353.833 704.453 354.297 704.608 354.926 704.768C355.566 704.928 356.094 705.093 356.51 705.264C356.926 705.435 357.284 705.701 357.582 706.064C357.892 706.416 358.052 706.885 358.062 707.472C358.062 707.984 357.918 708.443 357.63 708.848C357.353 709.253 356.948 709.573 356.414 709.808C355.892 710.032 355.278 710.144 354.574 710.144Z" fill="black"/>
<circle cx="259.5" cy="639.5" r="27.5" fill="#A11205"/>
<path d="M272 627.604C272 625.617 270.383 624 268.398 624C266.413 624 264.798 625.617 264.798 627.604C264.798 629.309 265.987 630.736 267.575 631.11V638.686H260.323V631.11C261.912 630.736 263.1 629.309 263.1 627.604C263.1 625.617 261.485 624 259.498 624C257.513 624 255.9 625.617 255.9 627.604C255.9 629.309 257.087 630.736 258.675 631.11V638.686H251.423V631.11C253.012 630.736 254.2 629.309 254.2 627.604C254.2 625.617 252.585 624 250.6 624C248.617 624 247 625.617 247 627.604C247 629.309 248.188 630.736 249.777 631.11V647.891C248.188 648.264 247 649.693 247 651.398C247 653.383 248.617 655 250.6 655C252.585 655 254.2 653.383 254.2 651.398C254.2 649.693 253.012 648.264 251.423 647.891V640.334H258.675V647.891C257.087 648.264 255.9 649.693 255.9 651.398C255.9 653.383 257.513 655 259.498 655C261.485 655 263.1 653.383 263.1 651.398C263.1 649.693 261.912 648.264 260.323 647.891V640.334H269.246V638.686H269.222V631.11C270.81 630.736 272 629.309 272 627.604V627.604ZM257.545 627.604C257.545 626.526 258.421 625.647 259.498 625.647C260.577 625.647 261.454 626.526 261.454 627.604C261.454 628.684 260.577 629.562 259.498 629.562C258.421 629.562 257.545 628.684 257.545 627.604ZM248.645 627.604C248.645 626.526 249.523 625.647 250.6 625.647C251.677 625.647 252.555 626.526 252.555 627.604C252.555 628.684 251.677 629.562 250.6 629.562C249.523 629.562 248.645 628.684 248.645 627.604ZM252.555 651.398C252.555 652.474 251.677 653.353 250.6 653.353C249.523 653.353 248.645 652.474 248.645 651.398C248.645 650.317 249.523 649.44 250.6 649.44C251.677 649.44 252.555 650.317 252.555 651.398ZM261.454 651.398C261.454 652.474 260.577 653.353 259.498 653.353C258.421 653.353 257.545 652.474 257.545 651.398C257.545 650.317 258.421 649.44 259.498 649.44C260.577 649.44 261.454 650.317 261.454 651.398ZM266.443 627.604C266.443 626.526 267.321 625.647 268.398 625.647C269.475 625.647 270.353 626.526 270.353 627.604C270.353 628.684 269.475 629.562 268.398 629.562C267.321 629.562 266.443 628.684 266.443 627.604Z" fill="#FEFEFE"/>
<path d="M893.858 707.728V705.968L899.09 698.48H901.698V705.776H903.106V707.728H901.698V710H899.458V707.728H893.858ZM899.602 700.88L896.322 705.776H899.602V700.88ZM905.94 710.112C905.535 710.112 905.199 709.989 904.932 709.744C904.676 709.488 904.548 709.173 904.548 708.8C904.548 708.427 904.676 708.117 904.932 707.872C905.199 707.616 905.535 707.488 905.94 707.488C906.335 707.488 906.66 707.616 906.916 707.872C907.172 708.117 907.3 708.427 907.3 708.8C907.3 709.173 907.172 709.488 906.916 709.744C906.66 709.989 906.335 710.112 905.94 710.112ZM909.713 707.472C910.737 706.619 911.553 705.909 912.161 705.344C912.769 704.768 913.275 704.171 913.681 703.552C914.086 702.933 914.289 702.325 914.289 701.728C914.289 701.184 914.161 700.757 913.905 700.448C913.649 700.139 913.254 699.984 912.721 699.984C912.187 699.984 911.777 700.165 911.489 700.528C911.201 700.88 911.051 701.365 911.041 701.984H908.865C908.907 700.704 909.286 699.733 910.001 699.072C910.726 698.411 911.643 698.08 912.753 698.08C913.969 698.08 914.902 698.405 915.553 699.056C916.203 699.696 916.529 700.544 916.529 701.6C916.529 702.432 916.305 703.227 915.857 703.984C915.409 704.741 914.897 705.403 914.321 705.968C913.745 706.523 912.993 707.195 912.065 707.984H916.785V709.84H908.881V708.176L909.713 707.472ZM928.585 694.848L924.265 712.896H922.073L926.393 694.848H928.585ZM933.97 700.4V698.336H937.826V710H935.522V700.4H933.97ZM940.199 704.016C940.199 702.171 940.53 700.725 941.191 699.68C941.863 698.635 942.973 698.112 944.519 698.112C946.066 698.112 947.17 698.635 947.831 699.68C948.503 700.725 948.839 702.171 948.839 704.016C948.839 705.872 948.503 707.328 947.831 708.384C947.17 709.44 946.066 709.968 944.519 709.968C942.973 709.968 941.863 709.44 941.191 708.384C940.53 707.328 940.199 705.872 940.199 704.016ZM946.631 704.016C946.631 703.227 946.578 702.565 946.471 702.032C946.375 701.488 946.173 701.045 945.863 700.704C945.565 700.363 945.117 700.192 944.519 700.192C943.922 700.192 943.469 700.363 943.159 700.704C942.861 701.045 942.658 701.488 942.551 702.032C942.455 702.565 942.407 703.227 942.407 704.016C942.407 704.827 942.455 705.509 942.551 706.064C942.647 706.608 942.85 707.051 943.159 707.392C943.469 707.723 943.922 707.888 944.519 707.888C945.117 707.888 945.57 707.723 945.879 707.392C946.189 707.051 946.391 706.608 946.487 706.064C946.583 705.509 946.631 704.827 946.631 704.016ZM950.703 704.016C950.703 702.171 951.034 700.725 951.695 699.68C952.367 698.635 953.476 698.112 955.023 698.112C956.57 698.112 957.674 698.635 958.335 699.68C959.007 700.725 959.343 702.171 959.343 704.016C959.343 705.872 959.007 707.328 958.335 708.384C957.674 709.44 956.57 709.968 955.023 709.968C953.476 709.968 952.367 709.44 951.695 708.384C951.034 707.328 950.703 705.872 950.703 704.016ZM957.135 704.016C957.135 703.227 957.082 702.565 956.975 702.032C956.879 701.488 956.676 701.045 956.367 700.704C956.068 700.363 955.62 700.192 955.023 700.192C954.426 700.192 953.972 700.363 953.663 700.704C953.364 701.045 953.162 701.488 953.055 702.032C952.959 702.565 952.911 703.227 952.911 704.016C952.911 704.827 952.959 705.509 953.055 706.064C953.151 706.608 953.354 707.051 953.663 707.392C953.972 707.723 954.426 707.888 955.023 707.888C955.62 707.888 956.074 707.723 956.383 707.392C956.692 707.051 956.895 706.608 956.991 706.064C957.087 705.509 957.135 704.827 957.135 704.016ZM971.739 710L967.675 705.024V710H965.435V698.832H967.675V703.84L971.739 698.832H974.443L969.835 704.368L974.571 710H971.739ZM987.213 701.008C988.301 701.008 989.175 701.344 989.837 702.016C990.509 702.677 990.845 703.605 990.845 704.8V710H988.605V705.104C988.605 704.411 988.429 703.883 988.077 703.52C987.725 703.147 987.245 702.96 986.637 702.96C986.029 702.96 985.543 703.147 985.181 703.52C984.829 703.883 984.653 704.411 984.653 705.104V710H982.413V705.104C982.413 704.411 982.237 703.883 981.885 703.52C981.533 703.147 981.053 702.96 980.445 702.96C979.826 702.96 979.335 703.147 978.973 703.52C978.621 703.883 978.445 704.411 978.445 705.104V710H976.205V701.136H978.445V702.208C978.733 701.835 979.101 701.541 979.549 701.328C980.007 701.115 980.509 701.008 981.053 701.008C981.746 701.008 982.365 701.157 982.909 701.456C983.453 701.744 983.874 702.16 984.173 702.704C984.461 702.192 984.877 701.781 985.421 701.472C985.975 701.163 986.573 701.008 987.213 701.008Z" fill="black"/>
<circle cx="940.5" cy="639.5" r="27.5" fill="#A11205"/>
<path d="M949.698 625.441H939.106C939.061 625.441 939.019 625.463 938.985 625.494L938.606 625.871L938.595 625.861L931.67 632.784L931.683 632.795L928.745 635.734C928.712 635.765 928.695 635.81 928.695 635.857V651.479C928.695 652.542 929.558 653.411 930.626 653.411H949.698C950.761 653.411 951.63 652.542 951.63 651.479V627.372C951.63 626.308 950.761 625.441 949.698 625.441V625.441ZM946.263 648.246C946.535 648.524 946.535 648.967 946.263 649.239C946.124 649.376 945.941 649.447 945.764 649.447C945.584 649.447 945.405 649.376 945.268 649.239L943.148 647.119H937.586L935.468 649.239C935.329 649.376 935.146 649.447 934.969 649.447C934.788 649.447 934.61 649.376 934.473 649.239C934.199 648.967 934.199 648.524 934.473 648.246L936.593 646.129V640.565L934.473 638.444C934.199 638.17 934.199 637.729 934.473 637.45C934.746 637.178 935.193 637.178 935.468 637.45L937.586 639.571H943.148L945.268 637.45C945.542 637.178 945.988 637.178 946.263 637.45C946.535 637.729 946.535 638.17 946.263 638.444L944.141 640.565V646.129L946.263 648.246ZM947.416 635.506C947.416 635.605 947.338 635.681 947.242 635.681H934.879L940.498 630.064H947.242C947.338 630.064 947.416 630.141 947.416 630.239V635.506Z" fill="#FEFEFE"/>
<path d="M938 645.716H942.741V640.976H938V645.716Z" fill="#FEFEFE"/>
<path d="M930.692 631.645L934.644 627.692C934.765 627.571 934.765 627.375 934.644 627.252L932.724 625.331C932.601 625.209 932.405 625.209 932.282 625.331L931.397 626.218C931.387 626.196 931.373 626.178 931.356 626.159L930.256 625.057C930.184 624.987 930.078 624.981 930.018 625.042L928.042 627.017C927.98 627.078 927.988 627.185 928.058 627.253L929.161 628.356C929.177 628.373 929.197 628.387 929.217 628.398L928.333 629.284C928.21 629.405 928.21 629.602 928.333 629.723L930.252 631.645C930.375 631.768 930.57 631.768 930.692 631.645V631.645Z" fill="#FEFEFE"/>
<path d="M865.572 729.75C865.572 728.72 865.802 727.8 866.262 726.99C866.732 726.17 867.367 725.535 868.167 725.085C868.977 724.625 869.882 724.395 870.882 724.395C872.052 724.395 873.077 724.695 873.957 725.295C874.837 725.895 875.452 726.725 875.802 727.785H873.387C873.147 727.285 872.807 726.91 872.367 726.66C871.937 726.41 871.437 726.285 870.867 726.285C870.257 726.285 869.712 726.43 869.232 726.72C868.762 727 868.392 727.4 868.122 727.92C867.862 728.44 867.732 729.05 867.732 729.75C867.732 730.44 867.862 731.05 868.122 731.58C868.392 732.1 868.762 732.505 869.232 732.795C869.712 733.075 870.257 733.215 870.867 733.215C871.437 733.215 871.937 733.09 872.367 732.84C872.807 732.58 873.147 732.2 873.387 731.7H875.802C875.452 732.77 874.837 733.605 873.957 734.205C873.087 734.795 872.062 735.09 870.882 735.09C869.882 735.09 868.977 734.865 868.167 734.415C867.367 733.955 866.732 733.32 866.262 732.51C865.802 731.7 865.572 730.78 865.572 729.75ZM881.436 735.135C880.636 735.135 879.916 734.96 879.276 734.61C878.636 734.25 878.131 733.745 877.761 733.095C877.401 732.445 877.221 731.695 877.221 730.845C877.221 729.995 877.406 729.245 877.776 728.595C878.156 727.945 878.671 727.445 879.321 727.095C879.971 726.735 880.696 726.555 881.496 726.555C882.296 726.555 883.021 726.735 883.671 727.095C884.321 727.445 884.831 727.945 885.201 728.595C885.581 729.245 885.771 729.995 885.771 730.845C885.771 731.695 885.576 732.445 885.186 733.095C884.806 733.745 884.286 734.25 883.626 734.61C882.976 734.96 882.246 735.135 881.436 735.135ZM881.436 733.305C881.816 733.305 882.171 733.215 882.501 733.035C882.841 732.845 883.111 732.565 883.311 732.195C883.511 731.825 883.611 731.375 883.611 730.845C883.611 730.055 883.401 729.45 882.981 729.03C882.571 728.6 882.066 728.385 881.466 728.385C880.866 728.385 880.361 728.6 879.951 729.03C879.551 729.45 879.351 730.055 879.351 730.845C879.351 731.635 879.546 732.245 879.936 732.675C880.336 733.095 880.836 733.305 881.436 733.305ZM892.066 726.57C893.056 726.57 893.856 726.885 894.466 727.515C895.076 728.135 895.381 729.005 895.381 730.125V735H893.281V730.41C893.281 729.75 893.116 729.245 892.786 728.895C892.456 728.535 892.006 728.355 891.436 728.355C890.856 728.355 890.396 728.535 890.056 728.895C889.726 729.245 889.561 729.75 889.561 730.41V735H887.461V726.69H889.561V727.725C889.841 727.365 890.196 727.085 890.626 726.885C891.066 726.675 891.546 726.57 892.066 726.57ZM900.708 735.135C900.028 735.135 899.418 735.015 898.878 734.775C898.338 734.525 897.908 734.19 897.588 733.77C897.278 733.35 897.108 732.885 897.078 732.375H899.193C899.233 732.695 899.388 732.96 899.658 733.17C899.938 733.38 900.283 733.485 900.693 733.485C901.093 733.485 901.403 733.405 901.623 733.245C901.853 733.085 901.968 732.88 901.968 732.63C901.968 732.36 901.828 732.16 901.548 732.03C901.278 731.89 900.843 731.74 900.243 731.58C899.623 731.43 899.113 731.275 898.713 731.115C898.323 730.955 897.983 730.71 897.693 730.38C897.413 730.05 897.273 729.605 897.273 729.045C897.273 728.585 897.403 728.165 897.663 727.785C897.933 727.405 898.313 727.105 898.803 726.885C899.303 726.665 899.888 726.555 900.558 726.555C901.548 726.555 902.338 726.805 902.928 727.305C903.518 727.795 903.843 728.46 903.903 729.3H901.893C901.863 728.97 901.723 728.71 901.473 728.52C901.233 728.32 900.908 728.22 900.498 728.22C900.118 728.22 899.823 728.29 899.613 728.43C899.413 728.57 899.313 728.765 899.313 729.015C899.313 729.295 899.453 729.51 899.733 729.66C900.013 729.8 900.448 729.945 901.038 730.095C901.638 730.245 902.133 730.4 902.523 730.56C902.913 730.72 903.248 730.97 903.528 731.31C903.818 731.64 903.968 732.08 903.978 732.63C903.978 733.11 903.843 733.54 903.573 733.92C903.313 734.3 902.933 734.6 902.433 734.82C901.943 735.03 901.368 735.135 900.708 735.135ZM909.542 735.135C908.742 735.135 908.022 734.96 907.382 734.61C906.742 734.25 906.237 733.745 905.867 733.095C905.507 732.445 905.327 731.695 905.327 730.845C905.327 729.995 905.512 729.245 905.882 728.595C906.262 727.945 906.777 727.445 907.427 727.095C908.077 726.735 908.802 726.555 909.602 726.555C910.402 726.555 911.127 726.735 911.777 727.095C912.427 727.445 912.937 727.945 913.307 728.595C913.687 729.245 913.877 729.995 913.877 730.845C913.877 731.695 913.682 732.445 913.292 733.095C912.912 733.745 912.392 734.25 911.732 734.61C911.082 734.96 910.352 735.135 909.542 735.135ZM909.542 733.305C909.922 733.305 910.277 733.215 910.607 733.035C910.947 732.845 911.217 732.565 911.417 732.195C911.617 731.825 911.717 731.375 911.717 730.845C911.717 730.055 911.507 729.45 911.087 729.03C910.677 728.6 910.172 728.385 909.572 728.385C908.972 728.385 908.467 728.6 908.057 729.03C907.657 729.45 907.457 730.055 907.457 730.845C907.457 731.635 907.652 732.245 908.042 732.675C908.442 733.095 908.942 733.305 909.542 733.305ZM925.887 726.57C926.907 726.57 927.727 726.885 928.347 727.515C928.977 728.135 929.292 729.005 929.292 730.125V735H927.192V730.41C927.192 729.76 927.027 729.265 926.697 728.925C926.367 728.575 925.917 728.4 925.347 728.4C924.777 728.4 924.322 728.575 923.982 728.925C923.652 729.265 923.487 729.76 923.487 730.41V735H921.387V730.41C921.387 729.76 921.222 729.265 920.892 728.925C920.562 728.575 920.112 728.4 919.542 728.4C918.962 728.4 918.502 728.575 918.162 728.925C917.832 729.265 917.667 729.76 917.667 730.41V735H915.567V726.69H917.667V727.695C917.937 727.345 918.282 727.07 918.702 726.87C919.132 726.67 919.602 726.57 920.112 726.57C920.762 726.57 921.342 726.71 921.852 726.99C922.362 727.26 922.757 727.65 923.037 728.16C923.307 727.68 923.697 727.295 924.207 727.005C924.727 726.715 925.287 726.57 925.887 726.57ZM930.895 730.815C930.895 729.975 931.06 729.23 931.39 728.58C931.73 727.93 932.185 727.43 932.755 727.08C933.335 726.73 933.98 726.555 934.69 726.555C935.31 726.555 935.85 726.68 936.31 726.93C936.78 727.18 937.155 727.495 937.435 727.875V726.69H939.55V735H937.435V733.785C937.165 734.175 936.79 734.5 936.31 734.76C935.84 735.01 935.295 735.135 934.675 735.135C933.975 735.135 933.335 734.955 932.755 734.595C932.185 734.235 931.73 733.73 931.39 733.08C931.06 732.42 930.895 731.665 930.895 730.815ZM937.435 730.845C937.435 730.335 937.335 729.9 937.135 729.54C936.935 729.17 936.665 728.89 936.325 728.7C935.985 728.5 935.62 728.4 935.23 728.4C934.84 728.4 934.48 728.495 934.15 728.685C933.82 728.875 933.55 729.155 933.34 729.525C933.14 729.885 933.04 730.315 933.04 730.815C933.04 731.315 933.14 731.755 933.34 732.135C933.55 732.505 933.82 732.79 934.15 732.99C934.49 733.19 934.85 733.29 935.23 733.29C935.62 733.29 935.985 733.195 936.325 733.005C936.665 732.805 936.935 732.525 937.135 732.165C937.335 731.795 937.435 731.355 937.435 730.845ZM944.196 728.415V732.435C944.196 732.715 944.261 732.92 944.391 733.05C944.531 733.17 944.761 733.23 945.081 733.23H946.056V735H944.736C942.966 735 942.081 734.14 942.081 732.42V728.415H941.091V726.69H942.081V724.635H944.196V726.69H946.056V728.415H944.196ZM948.782 725.7C948.412 725.7 948.102 725.585 947.852 725.355C947.612 725.115 947.492 724.82 947.492 724.47C947.492 724.12 947.612 723.83 947.852 723.6C948.102 723.36 948.412 723.24 948.782 723.24C949.152 723.24 949.457 723.36 949.697 723.6C949.947 723.83 950.072 724.12 950.072 724.47C950.072 724.82 949.947 725.115 949.697 725.355C949.457 725.585 949.152 725.7 948.782 725.7ZM949.817 726.69V735H947.717V726.69H949.817ZM955.731 735.135C954.931 735.135 954.211 734.96 953.571 734.61C952.931 734.25 952.426 733.745 952.056 733.095C951.696 732.445 951.516 731.695 951.516 730.845C951.516 729.995 951.701 729.245 952.071 728.595C952.451 727.945 952.966 727.445 953.616 727.095C954.266 726.735 954.991 726.555 955.791 726.555C956.591 726.555 957.316 726.735 957.966 727.095C958.616 727.445 959.126 727.945 959.496 728.595C959.876 729.245 960.066 729.995 960.066 730.845C960.066 731.695 959.871 732.445 959.481 733.095C959.101 733.745 958.581 734.25 957.921 734.61C957.271 734.96 956.541 735.135 955.731 735.135ZM955.731 733.305C956.111 733.305 956.466 733.215 956.796 733.035C957.136 732.845 957.406 732.565 957.606 732.195C957.806 731.825 957.906 731.375 957.906 730.845C957.906 730.055 957.696 729.45 957.276 729.03C956.866 728.6 956.361 728.385 955.761 728.385C955.161 728.385 954.656 728.6 954.246 729.03C953.846 729.45 953.646 730.055 953.646 730.845C953.646 731.635 953.841 732.245 954.231 732.675C954.631 733.095 955.131 733.305 955.731 733.305ZM966.362 726.57C967.352 726.57 968.152 726.885 968.762 727.515C969.372 728.135 969.677 729.005 969.677 730.125V735H967.577V730.41C967.577 729.75 967.412 729.245 967.082 728.895C966.752 728.535 966.302 728.355 965.732 728.355C965.152 728.355 964.692 728.535 964.352 728.895C964.022 729.245 963.857 729.75 963.857 730.41V735H961.757V726.69H963.857V727.725C964.137 727.365 964.492 727.085 964.922 726.885C965.362 726.675 965.842 726.57 966.362 726.57ZM986.963 724.53V735H984.863V728.19L982.058 735H980.468L977.648 728.19V735H975.548V724.53H977.933L981.263 732.315L984.593 724.53H986.963ZM990.254 725.7C989.884 725.7 989.574 725.585 989.324 725.355C989.084 725.115 988.964 724.82 988.964 724.47C988.964 724.12 989.084 723.83 989.324 723.6C989.574 723.36 989.884 723.24 990.254 723.24C990.624 723.24 990.929 723.36 991.169 723.6C991.419 723.83 991.544 724.12 991.544 724.47C991.544 724.82 991.419 725.115 991.169 725.355C990.929 725.585 990.624 725.7 990.254 725.7ZM991.289 726.69V735H989.189V726.69H991.289ZM998.104 735L996.394 732.42L994.879 735H992.629L995.344 730.83L992.599 726.69H994.969L996.664 729.255L998.194 726.69H1000.44L997.714 730.83L1000.47 735H998.104ZM1004.21 728.415V732.435C1004.21 732.715 1004.27 732.92 1004.4 733.05C1004.54 733.17 1004.77 733.23 1005.09 733.23H1006.07V735H1004.75C1002.98 735 1002.09 734.14 1002.09 732.42V728.415H1001.1V726.69H1002.09V724.635H1004.21V726.69H1006.07V728.415H1004.21ZM1015.46 730.665C1015.46 730.965 1015.44 731.235 1015.4 731.475H1009.32C1009.37 732.075 1009.58 732.545 1009.95 732.885C1010.32 733.225 1010.78 733.395 1011.32 733.395C1012.1 733.395 1012.65 733.06 1012.98 732.39H1015.25C1015.01 733.19 1014.55 733.85 1013.87 734.37C1013.19 734.88 1012.35 735.135 1011.36 735.135C1010.56 735.135 1009.84 734.96 1009.2 734.61C1008.57 734.25 1008.08 733.745 1007.72 733.095C1007.37 732.445 1007.19 731.695 1007.19 730.845C1007.19 729.985 1007.37 729.23 1007.72 728.58C1008.07 727.93 1008.56 727.43 1009.19 727.08C1009.82 726.73 1010.54 726.555 1011.36 726.555C1012.15 726.555 1012.86 726.725 1013.48 727.065C1014.11 727.405 1014.59 727.89 1014.93 728.52C1015.28 729.14 1015.46 729.855 1015.46 730.665ZM1013.28 730.065C1013.27 729.525 1013.08 729.095 1012.7 728.775C1012.32 728.445 1011.85 728.28 1011.3 728.28C1010.78 728.28 1010.34 728.44 1009.98 728.76C1009.63 729.07 1009.42 729.505 1009.34 730.065H1013.28Z" fill="#989393"/>
<g filter="url(#filter2_f_53_8)">
<path d="M385.098 464.073C390.813 465.772 408.816 469.471 417.537 470.561C424.951 471.488 440.089 472.569 441.171 474.268C441.171 474.268 532.691 510.564 606.146 518.293C647.722 522.667 671.665 523.081 713.195 518.293C751.708 513.852 812.366 504.854 810.049 496.512C807.732 488.171 764.634 475.658 764.634 475.658L557.951 415.878L424.951 406.146L385.098 399.195V464.073Z" fill="url(#paint2_linear_53_8)"/>
</g>
<rect x="304" y="256" width="563.512" height="304"/>
<defs>
<filter id="filter0_f_53_8" x="273" y="358.991" width="626.389" height="214.479" filterUnits="userSpaceOnUse" color-interpolation-filters="sRGB">
<feFlood flood-opacity="0" result="BackgroundImageFix"/>
<feBlend mode="normal" in="SourceGraphic" in2="BackgroundImageFix" result="shape"/>
<feGaussianBlur stdDeviation="22" result="effect1_foregroundBlur_53_8"/>
</filter>
<filter id="filter1_d_53_8" x="292" y="381.991" width="588.389" height="176.479" filterUnits="userSpaceOnUse" color-interpolation-filters="sRGB">
<feFlood flood-opacity="0" result="BackgroundImageFix"/>
<feColorMatrix in="SourceAlpha" type="matrix" values="0 0 0 0 0 0 0 0 0 0 0 0 0 0 0 0 0 0 127 0" result="hardAlpha"/>
<feOffset dy="4"/>
<feGaussianBlur stdDeviation="12.5"/>
<feComposite in2="hardAlpha" operator="out"/>
<feColorMatrix type="matrix" values="0 0 0 0 0 0 0 0 0 0 0 0 0 0 0 0 0 0 0.25 0"/>
<feBlend mode="normal" in2="BackgroundImageFix" result="effect1_dropShadow_53_8"/>
<feBlend mode="normal" in="SourceGraphic" in2="effect1_dropShadow_53_8" result="shape"/>
</filter>
<filter id="filter2_f_53_8" x="373.098" y="387.195" width="449.016" height="146.535" filterUnits="userSpaceOnUse" color-interpolation-filters="sRGB">
<feFlood flood-opacity="0" result="BackgroundImageFix"/>
<feBlend mode="normal" in="SourceGraphic" in2="BackgroundImageFix" result="shape"/>
<feGaussianBlur stdDeviation="6" result="effect1_foregroundBlur_53_8"/>
</filter>
<linearGradient id="paint0_linear_53_8" x1="586.195" y1="402.991" x2="586.195" y2="529.47" gradientUnits="userSpaceOnUse">
<stop stop-color="#6E0E03"/>
<stop offset="0.927083" stop-color="#BC1405"/>
</linearGradient>
<linearGradient id="paint1_linear_53_8" x1="586.195" y1="402.991" x2="586.195" y2="529.47" gradientUnits="userSpaceOnUse">
<stop stop-color="#6E0E03"/>
<stop offset="0.927083" stop-color="#BC1405"/>
</linearGradient>
<linearGradient id="paint2_linear_53_8" x1="597.605" y1="399.195" x2="597.605" y2="521.73" gradientUnits="userSpaceOnUse">
<stop/>
<stop offset="1" stop-opacity="0.44"/>
</linearGradient>
</defs>
</svg>
