<svg width="140" height="140" viewBox="0 0 140 140" fill="none" xmlns="http://www.w3.org/2000/svg">
<g filter="url(#filter0_f_1_74)">
<circle cx="70" cy="70" r="50" fill="#B71405"/>
</g>
<circle cx="70" cy="70" r="50" fill="#B71405"/>
<g clip-path="url(#clip0_1_74)">
<path d="M42.9167 85.4928C43.0893 85.2758 43.0798 85.0009 43.1505 84.7515C44.3415 80.5517 49.354 78.7227 52.9976 81.1677C53.2368 81.328 53.4652 81.3941 53.748 81.3941C61.9201 81.3887 70.0908 81.3874 78.2629 81.3981C78.615 81.3981 78.7945 81.293 78.9644 80.9817C80.6176 77.9436 82.2898 74.9137 83.9648 71.8879C84.1116 71.6223 84.1633 71.373 84.1075 71.0765C82.9315 64.8266 81.7623 58.5754 80.5904 52.3241C80.3498 51.0369 80.0874 49.7538 79.8808 48.4626C79.8196 48.0785 79.6605 48.0232 79.322 48.0259C77.7449 48.0407 76.1693 48.0219 74.5922 48.0407C74.2442 48.0448 74.1245 47.9639 74.1395 47.6013C74.1694 46.8627 74.1667 46.1214 74.1395 45.3828C74.13 45.058 74.2415 44.9987 74.5419 45C76.9999 45.0122 79.4579 45.0108 81.916 45.0014C82.211 45.0014 82.3469 45.0485 82.4108 45.3895C83.7173 52.4683 85.0429 59.5444 86.3643 66.6219C87.1773 70.9767 87.9958 75.3302 88.7938 79.6877C88.8591 80.0436 89.0507 80.0894 89.339 80.1271C92.6983 80.5746 95.0843 83.3633 94.9973 86.7261C94.9157 89.8463 92.2878 92.5892 89.2044 92.8682C85.5663 93.197 82.7194 90.6483 82.177 87.71C81.6509 84.8688 82.9451 82.1961 85.5146 80.8037C85.6846 80.7121 85.9021 80.6797 85.8436 80.3873C85.5812 79.0448 85.3338 77.6997 85.0755 76.3303C84.8566 76.453 84.8172 76.6443 84.7343 76.7967C82.279 81.2539 79.825 85.7125 77.386 90.1779C77.1862 90.5445 76.97 90.6901 76.5323 90.6887C69.2765 90.6726 62.0207 90.6779 54.7649 90.6725C54.4618 90.6725 54.2361 90.7359 54.005 90.961C52.1832 92.7361 49.9984 93.3332 47.5635 92.6202C45.1069 91.9004 43.6209 90.1887 43.0322 87.7168C43.0064 87.6103 43.0581 87.4728 42.918 87.4068V85.4901L42.9167 85.4928Z" fill="white"/>
<path d="M77.0326 84.4712C76.4684 85.4996 75.9164 86.5091 75.3603 87.5146C75.2325 87.7464 74.996 87.6494 74.8084 87.6494C69.0807 87.6548 63.3517 87.6534 57.624 87.6534C57.0992 87.6534 56.5731 87.6534 56.0483 87.6534C55.8893 87.6534 55.7533 87.6615 55.7886 87.4135C55.9314 86.4215 55.8648 85.4403 55.5399 84.4847C55.9831 84.4011 76.3854 84.3863 77.0353 84.4712H77.0326Z" fill="#B71405"/>
<path d="M52.8018 86.4943C52.7963 88.3718 51.2669 89.88 49.3785 89.8706C47.4915 89.8611 45.9647 88.3394 45.9702 86.47C45.9742 84.61 47.5295 83.0775 49.403 83.0843C51.2873 83.0923 52.8086 84.6167 52.8018 86.4929V86.4943Z" fill="#B71405"/>
<path d="M85.1149 86.4512C85.1285 84.5817 86.6797 83.0668 88.5585 83.0856C90.436 83.1058 91.9614 84.6491 91.9478 86.5145C91.9342 88.3772 90.3776 89.8895 88.4946 89.8679C86.5981 89.8463 85.1026 88.3327 85.1162 86.4498L85.1149 86.4512Z" fill="#B71405"/>
</g>
<defs>
<filter id="filter0_f_1_74" x="0" y="0" width="140" height="140" filterUnits="userSpaceOnUse" color-interpolation-filters="sRGB">
<feFlood flood-opacity="0" result="BackgroundImageFix"/>
<feBlend mode="normal" in="SourceGraphic" in2="BackgroundImageFix" result="shape"/>
<feGaussianBlur stdDeviation="10" result="effect1_foregroundBlur_1_74"/>
</filter>
<clipPath id="clip0_1_74">
<rect width="52.0833" height="47.9167" fill="white" transform="translate(42.9167 45)"/>
</clipPath>
</defs>
</svg>
